<?xml version="1.0" encoding="UTF-8" standalone="no"?>
<!-- Created with Inkscape (http://www.inkscape.org/) -->

<svg
   version="1.1"
   id="svg1"
   width="80"
   height="80"
   viewBox="0 0 80 80"
   sodipodi:docname="logo.svg"
   inkscape:version="1.2.2 (b0a8486541, 2022-12-01)"
   inkscape:export-filename="not_image.png"
   inkscape:export-xdpi="96"
   inkscape:export-ydpi="96"
   xml:space="preserve"
   xmlns:inkscape="http://www.inkscape.org/namespaces/inkscape"
   xmlns:sodipodi="http://sodipodi.sourceforge.net/DTD/sodipodi-0.dtd"
   xmlns="http://www.w3.org/2000/svg"
   xmlns:svg="http://www.w3.org/2000/svg"><defs
     id="defs1" /><sodipodi:namedview
     id="namedview1"
     pagecolor="#ffffff"
     bordercolor="#000000"
     borderopacity="0.25"
     inkscape:showpageshadow="2"
     inkscape:pageopacity="0.0"
     inkscape:pagecheckerboard="0"
     inkscape:deskcolor="#d1d1d1"
     inkscape:zoom="10.170208"
     inkscape:cx="43.607763"
     inkscape:cy="27.678884"
     inkscape:window-width="2500"
     inkscape:window-height="1021"
     inkscape:window-x="1980"
     inkscape:window-y="29"
     inkscape:window-maximized="1"
     inkscape:current-layer="g1"
     showgrid="false" /><g
     inkscape:groupmode="layer"
     inkscape:label="Image"
     id="g1"><g
       id="g2"
       transform="matrix(0.5045806,0,0,0.5045806,-98.990291,-87.85412)"
       style="stroke-width:0.999894;stroke-dasharray:none"
       inkscape:export-filename="logo.png"
       inkscape:export-xdpi="96"
       inkscape:export-ydpi="96"
       inkscape:label="logo"><circle
         style="opacity:1;fill:#e10000;fill-opacity:1;stroke-width:0.999894;stroke-dasharray:none;stroke-opacity:0.410648"
         id="path1"
         cx="275.50272"
         cy="253.4903"
         r="77.391182" /><g
         id="g9"
         transform="matrix(0.41701792,0,0,0.41701792,139.35723,121.71746)"
         style="fill:#9dff80;fill-opacity:1;stroke-width:2.39772;stroke-dasharray:none"><path
           style="display:inline;fill:#9dff80;fill-opacity:1;stroke-width:2.39772;stroke-dasharray:none"
           d="m 428.84135,425.41452 c -2.74184,-0.66031 -5.05567,-2.42864 -6.59305,-5.0387 -1.205,-2.04578 -1.2413,-3.22364 -1.2413,-40.27741 v -38.17 l 1.45901,-2.34673 c 2.4819,-3.99201 5.06937,-4.85755 13.91461,-4.65459 l 7.59045,0.17416 v 45.30749 45.30748 l -6.51683,0.10154 c -3.58426,0.0558 -7.46006,-0.12561 -8.61289,-0.40324 z m -71.31337,-29.47073 c -3.62937,-1.13332 -6.72204,-3.62661 -8.27549,-6.67162 -0.71458,-1.40069 -3.34242,-8.15735 -5.83964,-15.01482 -2.49723,-6.85747 -4.73048,-12.9508 -4.96277,-13.54075 -0.23229,-0.58994 -3.75319,-3.21307 -7.82422,-5.82918 -4.07103,-2.6161 -7.24967,-4.90875 -7.06365,-5.09477 0.18602,-0.18602 10.87584,-4.13887 23.75516,-8.78411 15.92806,-5.74484 23.4794,-8.19776 23.61223,-7.67003 0.10741,0.42672 -0.80029,3.85549 -2.01711,7.61949 -1.21683,3.764 -2.21241,7.49248 -2.21241,8.2855 0,0.79302 2.20583,7.47774 4.90185,14.85494 2.69601,7.37721 5.09281,14.54344 5.32621,15.92496 1.09322,6.47072 -3.73363,13.91547 -10.28327,15.8605 -3.89094,1.15548 -5.57296,1.16653 -9.11689,0.0599 z m 7.45053,-6.25939 c 2.51305,-0.59911 5.85222,-4.62115 6.36721,-7.66931 0.92482,-5.47399 -3.92401,-11.22643 -9.46296,-11.22643 -7.38057,0 -12.19596,7.45243 -9.07079,14.03822 1.57451,3.31803 6.52262,6.15487 9.54356,5.47149 0.51204,-0.11583 1.69238,-0.39212 2.62298,-0.61397 z m -5.42536,-8.37447 c -0.8016,-2.52561 2.6818,-4.28776 3.96022,-2.00336 0.8497,1.51834 -0.25982,3.27444 -2.06883,3.27444 -0.95449,0 -1.6326,-0.45571 -1.89139,-1.27108 z m 22.21378,12.65776 c -0.58055,-0.23512 -0.54978,-0.62813 0.13042,-1.66626 0.48959,-0.74721 1.34716,-3.1424 1.90572,-5.32264 1.22051,-4.76412 0.8294,-9.10257 -1.3403,-14.86757 -0.81825,-2.17412 -1.48772,-4.33864 -1.48772,-4.81004 0,-0.70703 2.82509,-0.85708 16.13691,-0.85708 h 16.13691 v 13.96464 13.96463 l -15.3611,-0.049 c -8.4486,-0.0269 -15.70298,-0.18745 -16.12084,-0.35668 z M 245.7798,365.52428 c -9.50477,-2.13923 -20.10695,-10.97432 -27.31887,-22.76557 -13.46213,-22.01014 -14.56947,-51.00599 -2.474,-64.78196 1.0371,-1.18119 2.34546,-2.13816 2.90747,-2.1266 0.56202,0.0116 2.81912,1.45582 5.01578,3.20947 l 3.99392,3.18846 -1.48568,0.97992 c -5.11651,3.37473 -8.17726,8.58406 -9.32768,15.87553 -1.87134,11.86073 2.82221,29.55075 11.05839,41.67905 3.20878,4.72514 9.71539,10.80066 13.56047,12.66203 3.57481,1.73054 9.12164,2.27009 12.35778,1.20207 5.26866,-1.73882 9.75321,-8.40249 10.72611,-15.93814 0.34468,-2.66968 0.7031,-3.56631 1.37896,-3.44962 0.50228,0.0867 2.51917,0.49589 4.48197,0.90928 3.42287,0.72091 3.56874,0.83091 3.56874,2.69115 0,1.06674 -0.55172,4.09675 -1.22606,6.73337 -3.86304,15.10436 -14.39544,22.81736 -27.2173,19.93156 z m 31.96769,-10.90704 c 1.52613,-3.77831 3.33827,-10.65335 4.32398,-16.40465 l 0.53048,-3.09517 58.80224,-21.3732 c 32.34123,-11.75525 58.98949,-21.18594 59.21835,-20.95708 0.6457,0.6457 -2.07034,10.86237 -3.86029,14.52091 -2.23381,4.56575 -7.15071,9.74167 -11.01435,11.59459 -3.03468,1.45538 -108.07152,39.47301 -109.05781,39.47301 -0.25338,0 0.22246,-1.69129 1.0574,-3.75841 z m -33.10038,-8.06962 c -11.85986,-5.87059 -22.86396,-31.33002 -20.08936,-46.47937 1.33589,-7.29398 3.87506,-10.58481 8.16713,-10.58481 2.01674,0 2.5981,0.38482 4.8453,3.20718 4.00602,5.03135 6.77356,9.95085 11.88271,21.12234 2.60714,5.70068 5.6162,11.72993 6.68681,13.39832 2.1143,3.29485 2.30027,4.8176 1.2694,10.39406 -1.70082,9.20062 -6.06391,12.25782 -12.76199,8.94228 z m 2.78476,-15.88123 c 4.72238,-3.05592 4.07479,-14.49731 -1.18123,-20.86959 -3.4183,-4.14427 -8.12091,-5.47649 -11.50484,-3.25926 -5.15619,3.37847 -4.17623,15.37901 1.78384,21.84493 3.58414,3.88833 7.23954,4.6541 10.90223,2.28392 z m -5.61402,-7.46195 c -1.60795,-1.78926 -2.97176,-5.47914 -2.97176,-8.04026 0,-2.23513 0.0284,-2.26272 1.21899,-1.18523 1.6755,1.5163 3.26092,5.9166 3.01707,8.37382 -0.19547,1.96982 -0.23533,1.99667 -1.2643,0.85167 z m 27.44011,4.82485 c -4.24645,-1.50436 -7.78683,-5.21764 -9.87111,-10.35315 -2.67333,-6.58691 -9.87702,-20.96307 -12.49183,-24.92953 -3.5025,-5.31302 -13.98185,-16.1511 -20.0045,-20.6893 -5.23149,-3.94205 -12.60361,-7.95395 -17.07976,-9.29479 -1.46173,-0.43786 -2.43925,-1.00502 -2.17228,-1.26035 0.26698,-0.25533 33.16266,-12.41955 73.10151,-27.03161 l 72.61611,-26.56738 7.75813,1.4e-4 c 7.21747,1.3e-4 8.08862,0.13302 12.50043,1.90678 9.95436,4.00214 19.88805,12.45712 28.00016,23.83211 4.7556,6.6684 12.29464,21.19762 15.29849,29.48318 3.33442,9.1974 2.47864,13.31493 -3.34924,16.11455 -6.78301,3.25846 -134.7537,49.42497 -137.78928,49.70865 -2.12446,0.19854 -4.17992,-0.0914 -6.51683,-0.9193 z m -73.13994,-19.77117 c -10.08677,-16.32478 -14.14818,-28.58059 -11.64408,-35.13749 1.62454,-4.2538 2.64476,-4.84955 8.88795,-5.19005 5.56716,-0.30363 11.32439,0.62805 16.02973,2.59407 l 2.20518,0.92138 -2.49938,3.16196 c -6.11523,7.73634 -8.90586,17.39304 -8.91724,30.8572 -0.004,4.86435 -0.0785,8.84427 -0.16531,8.84427 -0.0868,0 -1.84039,-2.7231 -3.89685,-6.05134 z"
           id="path9" /></g></g></g></svg>
