<?xml version="1.0" encoding="UTF-8" standalone="no"?>
<!-- Created with Inkscape (http://www.inkscape.org/) -->

<svg
   width="350"
   height="200"
   viewBox="0 0 92.604167 52.916666"
   version="1.1"
   id="svg1"
   xml:space="preserve"
   inkscape:version="1.3.2 (091e20ef0f, 2023-11-25, custom)"
   sodipodi:docname="FastApiBase.svg"
   xmlns:inkscape="http://www.inkscape.org/namespaces/inkscape"
   xmlns:sodipodi="http://sodipodi.sourceforge.net/DTD/sodipodi-0.dtd"
   xmlns="http://www.w3.org/2000/svg"
   xmlns:svg="http://www.w3.org/2000/svg"><sodipodi:namedview
     id="namedview1"
     pagecolor="#ffffff"
     bordercolor="#000000"
     borderopacity="0.25"
     inkscape:showpageshadow="2"
     inkscape:pageopacity="0.0"
     inkscape:pagecheckerboard="0"
     inkscape:deskcolor="#d1d1d1"
     inkscape:document-units="px"
     inkscape:zoom="1.9462931"
     inkscape:cx="34.938212"
     inkscape:cy="144.37702"
     inkscape:window-width="2505"
     inkscape:window-height="1021"
     inkscape:window-x="1975"
     inkscape:window-y="31"
     inkscape:window-maximized="1"
     inkscape:current-layer="layer1"
     showguides="true"><sodipodi:guide
       position="6.8698948,34.837996"
       orientation="1,0"
       id="guide3"
       inkscape:locked="false" /><sodipodi:guide
       position="56.15555,34.731721"
       orientation="1,0"
       id="guide4"
       inkscape:locked="false" /></sodipodi:namedview><defs
     id="defs1"><radialGradient
       id="python-original-c"
       cx="1825.678"
       cy="444.45001"
       r="26.743"
       gradientTransform="matrix(0,-0.0635,-0.27913541,0,150.32744,127.08699)"
       gradientUnits="userSpaceOnUse"><stop
         offset="0"
         stop-color="#B8B8B8"
         stop-opacity=".498"
         id="stop5" /><stop
         offset="1"
         stop-color="#7F7F7F"
         stop-opacity="0"
         id="stop6" /></radialGradient><linearGradient
       id="python-original-b"
       gradientUnits="userSpaceOnUse"
       x1="209.474"
       y1="1098.811"
       x2="173.62"
       y2="1149.537"
       gradientTransform="matrix(0.14896041,0,0,-0.15028333,1.5802774,169.55288)"><stop
         offset="0"
         stop-color="#FFD43B"
         id="stop3" /><stop
         offset="1"
         stop-color="#FFE873"
         id="stop4" /></linearGradient><linearGradient
       id="python-original-a"
       gradientUnits="userSpaceOnUse"
       x1="70.251999"
       y1="1237.476"
       x2="170.659"
       y2="1151.089"
       gradientTransform="matrix(0.14896041,0,0,-0.15028333,1.5802774,169.55288)"><stop
         offset="0"
         stop-color="#5A9FD4"
         id="stop1" /><stop
         offset="1"
         stop-color="#306998"
         id="stop2" /></linearGradient></defs><g
     inkscape:label="BackGround"
     inkscape:groupmode="layer"
     id="layer1"><rect
       style="fill:#141414;fill-opacity:1;stroke:none;stroke-width:0.264583"
       id="rect1"
       width="92.541588"
       height="53.049576"
       x="0.090817787"
       y="-0.10676344"
       inkscape:label="background" /></g><g
     inkscape:groupmode="layer"
     id="layer3"
     inkscape:label="Tecnologias" /><g
     inkscape:groupmode="layer"
     id="layer4"
     inkscape:label="icone"
     style="display:inline"><rect
       style="fill:#141414;fill-opacity:1;stroke:#ffefe4;stroke-width:0.108428;stroke-dasharray:none;stroke-opacity:1"
       id="rect3"
       width="31.992945"
       height="8.7281542"
       x="12.912385"
       y="33.775669"
       ry="1.267707" /><g
       id="g4"
       transform="matrix(0.21870052,0,0,0.21870052,11.502583,38.745381)"><path
         fill="url(#python-original-a)"
         d="m 26.082281,-17.197706 c -1.117071,0.0053 -2.183341,0.100277 -3.122083,0.266435 -2.764896,0.488421 -3.266546,1.510771 -3.266546,3.396456 v 2.489994 h 6.533356 v 0.829998 h -8.985514 c -1.89865,0 -3.561292,1.1411478 -4.081463,3.3128478 -0.600075,2.4884062 -0.626533,4.0415103 0,6.63998323 0.464344,1.93436877 1.573477,3.31231867 3.472392,3.31231867 H 18.879 V 0.06529761 c 0,-2.15661871 1.865577,-4.05870831 4.081463,-4.05870831 h 6.525947 c 1.81663,0 3.266546,-1.4959541 3.266546,-3.3199916 V -13.53455 c 0,-1.770856 -1.493837,-3.100917 -3.266546,-3.396456 -1.122891,-0.186796 -2.287322,-0.271727 -3.404129,-0.2667 z m -3.533246,2.002631 c 0.674688,0 1.22608,0.560123 1.22608,1.249098 0,0.686064 -0.551127,1.240896 -1.22608,1.240896 -0.677333,0 -1.225814,-0.554832 -1.225814,-1.240896 -2.65e-4,-0.688975 0.548481,-1.249098 1.225814,-1.249098 z"
         id="path4"
         style="fill:url(#python-original-a);stroke-width:0.264583" /><path
         fill="url(#python-original-b)"
         d="m 33.567608,-10.214823 v 2.9014207 c 0,2.2489583 -1.907116,4.142052 -4.081462,4.142052 h -6.525948 c -1.787525,0 -3.266546,1.5300854 -3.266546,3.32025624 V 6.3705829 c 0,1.7703271 1.539346,2.8119917 3.266546,3.3197271 2.067983,0.607748 4.0513,0.717815 6.525948,0 1.64465,-0.4765146 3.266546,-1.4348354 3.266546,-3.3197271 V 3.8803246 H 26.227008 V 3.0500622 h 9.792759 c 1.89865,0 2.606675,-1.3242396 3.267075,-3.31231875 0.682095,-2.04655205 0.652727,-4.01478745 0,-6.63998325 -0.469371,-1.8904479 -1.365515,-3.3128482 -3.267075,-3.3128482 H 33.567608 Z M 29.897044,5.5403205 c 0.677598,0 1.226079,0.5548312 1.226079,1.2414249 0,0.6884459 -0.548746,1.2485688 -1.226079,1.2485688 -0.674688,0 -1.225815,-0.5601229 -1.225815,-1.2485688 0,-0.6865937 0.551127,-1.2414249 1.225815,-1.2414249 z"
         id="path5"
         style="fill:url(#python-original-b);stroke-width:0.264583" /><path
         opacity="0.444"
         fill="url(#python-original-c)"
         d="m 35.056419,11.20505 c 0,0.937418 -3.920067,1.697566 -8.755327,1.697566 -4.835525,0 -8.755592,-0.760148 -8.755592,-1.697566 0,-0.937684 3.919802,-1.6978317 8.755592,-1.6978317 4.83526,0 8.755327,0.7598837 8.755327,1.6978317 z"
         id="path6"
         style="fill:url(#python-original-c);stroke-width:0.264583" /></g><g
       id="g7"
       transform="translate(-14.83063,-0.05945604)"><path
         d="m 41.433769,39.922168 c 0.04977,-0.414223 0.03487,-0.475028 0.3434,-0.407883 l 0.0783,0.0069 c 0.23726,0.01078 0.547626,-0.03817 0.729977,-0.122877 0.392538,-0.182162 0.625234,-0.486187 0.238275,-0.406361 -0.882846,0.182161 -0.943524,-0.116791 -0.943524,-0.116791 0.932238,-1.383173 1.321923,-3.139037 0.985498,-3.568857 -0.917465,-1.172288 -2.505561,-0.617942 -2.532127,-0.603612 l -0.0085,0.0016 c -0.174426,-0.0362 -0.369649,-0.05783 -0.588965,-0.06138 -0.399513,-0.0066 -0.702651,0.104745 -0.932619,0.279107 0,0 -2.83311,-1.167215 -2.701291,1.467881 0.02803,0.56056 0.803463,4.241643 1.72841,3.12978 0.338074,-0.406551 0.664734,-0.750331 0.664734,-0.750331 0.162189,0.107724 0.356461,0.162759 0.560117,0.142977 l 0.01578,-0.01344 c -0.005,0.05047 -0.0028,0.09986 0.0062,0.158322 -0.238211,0.266235 -0.168213,0.312965 -0.644572,0.410989 -0.482001,0.09929 -0.198836,0.276127 -0.01401,0.322349 0.224136,0.05605 0.742596,0.135432 1.09297,-0.354939 l -0.01394,0.05592 c 0.09346,0.07482 0.08718,0.537481 0.100369,0.868009 0.01325,0.330592 0.03538,0.639055 0.102779,0.820963 0.0674,0.181844 0.146908,0.650278 0.772966,0.516114 0.523215,-0.111846 0.923235,-0.273211 0.959692,-1.774378"
         id="path1"
         style="stroke-width:0.0634046" /><path
         fill="#336791"
         d="m 42.823725,38.991895 c -0.88291,0.182161 -0.943587,-0.116792 -0.943587,-0.116792 0.932238,-1.383236 1.321922,-3.139164 0.985625,-3.568856 -0.917466,-1.172225 -2.505688,-0.617879 -2.532191,-0.603486 l -0.0086,0.0015 c -0.174426,-0.0362 -0.369648,-0.05777 -0.589092,-0.06132 -0.399512,-0.0065 -0.702523,0.104745 -0.932492,0.279107 0,0 -2.833173,-1.167152 -2.701418,1.467881 0.02803,0.560624 0.803463,4.241706 1.728411,3.129843 0.338073,-0.40655 0.66467,-0.750331 0.66467,-0.750331 0.162252,0.107725 0.356461,0.16276 0.560054,0.142978 l 0.01585,-0.01344 c -0.005,0.05047 -0.0026,0.09986 0.0063,0.158323 -0.238275,0.266235 -0.168276,0.312964 -0.644635,0.410988 -0.482002,0.09929 -0.198837,0.276127 -0.01395,0.322349 0.224072,0.05605 0.742596,0.135433 1.092906,-0.354939 l -0.01401,0.05592 c 0.09339,0.07482 0.158955,0.486441 0.147986,0.859577 -0.01103,0.373136 -0.01839,0.629354 0.05523,0.829459 0.07355,0.200106 0.146845,0.650278 0.773029,0.516114 0.523215,-0.112099 0.794333,-0.402683 0.832122,-0.887347 0.02676,-0.344605 0.08731,-0.293627 0.09118,-0.601711 l 0.04863,-0.14583 c 0.05604,-0.467102 0.0089,-0.617752 0.331289,-0.54769 l 0.0783,0.0069 c 0.23726,0.01078 0.547752,-0.03817 0.730041,-0.122877 0.392474,-0.182035 0.625233,-0.486124 0.238274,-0.406297 z"
         id="path3"
         style="stroke-width:0.0634046" /><path
         fill="#ffffff"
         d="m 40.301869,41.83667 c -0.521946,0 -0.687306,-0.413335 -0.754959,-0.582371 -0.09904,-0.247723 -0.120405,-1.209063 -0.09834,-1.997437 a 0.10081337,0.10081337 0 0 1 0.103984,-0.09828 0.10106699,0.10106699 0 0 1 0.09828,0.103921 c -0.02543,0.909286 0.01065,1.733291 0.08394,1.916659 0.114383,0.285891 0.287858,0.535959 0.778293,0.430897 0.46558,-0.09986 0.639942,-0.276381 0.717613,-0.726617 0.0596,-0.345492 0.17747,-1.328391 0.191989,-1.522346 a 0.10100358,0.10100358 0 0 1 0.108422,-0.09333 0.1012572,0.1012572 0 0 1 0.09333,0.108422 c -0.01515,0.201944 -0.132452,1.18294 -0.194335,1.541683 -0.09168,0.531775 -0.328754,0.772966 -0.874604,0.890011 -0.09276,0.01984 -0.177026,0.02873 -0.253618,0.02879 z M 37.47174,39.817803 a 0.42544508,0.42544508 0 0 1 -0.134164,-0.02219 c -0.339024,-0.113114 -0.661944,-0.665242 -0.95982,-1.641229 -0.226735,-0.742912 -0.37041,-1.518351 -0.383027,-1.770384 -0.03734,-0.747161 0.155024,-1.275765 0.57191,-1.571041 0.824704,-0.584336 2.21206,-0.0279 2.27071,-0.0039 a 0.1011941,0.1011941 0 0 1 -0.07653,0.187361 c -0.01338,-0.0054 -1.343735,-0.538432 -2.077643,-0.01807 -0.356462,0.252731 -0.520108,0.722306 -0.486441,1.395599 0.01059,0.212342 0.144816,0.96914 0.374468,1.721373 0.265919,0.871306 0.568549,1.421088 0.830347,1.508396 0.04109,0.01369 0.16612,0.05535 0.344858,-0.15959 a 15.551381,15.551381 0 0 1 0.648439,-0.730801 0.10119379,0.10119379 0 0 1 0.146085,0.139997 c -0.0031,0.0032 -0.307323,0.321272 -0.638929,0.720213 -0.157054,0.188883 -0.307576,0.244298 -0.430264,0.244298 z m 4.40212,-0.852475 A 0.10119379,0.10119379 0 0 1 41.79004,38.80764 c 0.942383,-1.398388 1.273165,-3.088058 0.989873,-3.450099 -0.356587,-0.455626 -0.860083,-0.693583 -1.496603,-0.707342 -0.471287,-0.01014 -0.845881,0.110197 -0.90713,0.131184 l -0.0154,0.0062 c -0.06157,0.01933 -0.108802,-0.01439 -0.126618,-0.05383 a 0.10144741,0.10144741 0 0 1 0.04001,-0.128394 c 0.0029,-0.0017 0.01217,-0.0056 0.0272,-0.01116 l -0.0014,3.81e-4 0.0014,-4.44e-4 c 0.104047,-0.03811 0.484348,-0.152172 0.955382,-0.146782 0.704298,0.0075 1.286099,0.279044 1.682378,0.785457 0.187487,0.239605 0.187931,0.791606 0.0012,1.514546 -0.190341,0.737079 -0.548514,1.529193 -0.982581,2.17332 -0.01941,0.02898 -0.05135,0.04457 -0.08388,0.04457 z m 0.04819,0.647361 c -0.160921,0 -0.305166,-0.0227 -0.391524,-0.07444 -0.08876,-0.05319 -0.105695,-0.125477 -0.107914,-0.163837 -0.02422,-0.425445 0.210503,-0.499502 0.330211,-0.533296 -0.01667,-0.02524 -0.04039,-0.05491 -0.06493,-0.08553 -0.06981,-0.08724 -0.165423,-0.206699 -0.239099,-0.385373 -0.01154,-0.0279 -0.04768,-0.09276 -0.08952,-0.167896 -0.226925,-0.406931 -0.6991,-1.2537 -0.395772,-1.687324 0.140378,-0.200676 0.419928,-0.279677 0.831805,-0.235611 -0.121167,-0.369142 -0.698148,-1.523867 -2.067245,-1.546312 -0.411749,-0.0069 -0.749442,0.11977 -1.003187,0.375989 -0.568106,0.573748 -0.547563,1.611872 -0.547246,1.622271 a 0.10116558,0.10116558 0 1 1 -0.202261,0.0053 c -0.0013,-0.04609 -0.02245,-1.135513 0.605768,-1.770004 0.294008,-0.296924 0.681029,-0.443516 1.150287,-0.435843 0.875871,0.01439 1.439665,0.459683 1.758337,0.830664 0.347394,0.404331 0.517699,0.850319 0.531711,0.999194 0.01046,0.110704 -0.06898,0.132832 -0.08502,0.136129 l -0.03652,8.24e-4 c -0.404204,-0.06474 -0.663529,-0.01978 -0.770746,0.133404 -0.23073,0.329768 0.215956,1.130758 0.406677,1.472826 0.04869,0.08724 0.08382,0.150332 0.09993,0.189263 0.06265,0.151917 0.144372,0.253998 0.209996,0.336045 0.05776,0.07215 0.107788,0.134735 0.125668,0.208157 0.0083,0.01458 0.126175,0.188946 0.825592,0.04457 0.175314,-0.03614 0.280438,-0.0053 0.312584,0.09194 0.06322,0.191165 -0.29147,0.414159 -0.487835,0.505335 -0.175948,0.08179 -0.456767,0.13353 -0.699733,0.13353 z M 41.624302,39.35774 c 0.02219,0.02238 0.133213,0.061 0.363118,0.0511 0.204417,-0.0088 0.419993,-0.05319 0.549338,-0.11324 0.165423,-0.07684 0.275873,-0.16276 0.333065,-0.221409 l -0.0317,0.0058 c -0.447193,0.09232 -0.763518,0.08002 -0.940163,-0.03658 a 0.39069934,0.39069934 0 0 1 -0.03424,-0.02543 c -0.01915,0.0075 -0.03684,0.01249 -0.04945,0.01604 -0.10018,0.02809 -0.203783,0.0572 -0.18996,0.323682 z m -2.888842,0.565252 c -0.111085,0 -0.228003,-0.01515 -0.347394,-0.04502 -0.123702,-0.03094 -0.33224,-0.124082 -0.32907,-0.277077 0.0036,-0.171637 0.253238,-0.223121 0.347204,-0.242459 0.339468,-0.06994 0.361596,-0.09796 0.467672,-0.232696 0.03094,-0.03925 0.06943,-0.08813 0.121928,-0.146718 0.07792,-0.08724 0.163076,-0.131438 0.253111,-0.131438 0.06271,0 0.114128,0.02124 0.148113,0.03538 0.108295,0.04489 0.198646,0.153439 0.235802,0.283228 0.03354,0.117109 0.0175,0.229842 -0.04501,0.317404 -0.205241,0.287413 -0.500008,0.439394 -0.852348,0.439394 z m -0.457905,-0.31341 c 0.0305,0.02359 0.09162,0.0551 0.159652,0.07209 0.103413,0.02587 0.20372,0.03899 0.29832,0.03899 0.288236,0 0.519663,-0.119328 0.687749,-0.354686 0.03506,-0.04907 0.02454,-0.111402 0.01515,-0.144183 -0.01965,-0.06867 -0.06848,-0.13112 -0.118757,-0.15198 -0.02727,-0.01128 -0.0499,-0.0199 -0.0707,-0.0199 -0.01116,0 -0.04514,0 -0.102336,0.06398 a 2.608847,2.608847 0 0 0 -0.113747,0.137081 c -0.132136,0.167769 -0.192687,0.224706 -0.585796,0.305674 -0.09593,0.01966 -0.145134,0.03969 -0.169544,0.05294 z m 0.777911,-0.466658 a 0.10119379,0.10119379 0 0 1 -0.09986,-0.08585 0.52105927,0.52105927 0 0 1 -0.0051,-0.05066 c -0.257676,-0.0048 -0.506286,-0.115397 -0.695041,-0.312332 -0.238655,-0.248989 -0.347268,-0.593975 -0.297939,-0.946441 0.05358,-0.382773 0.03354,-0.720656 0.02277,-0.902184 -0.003,-0.05047 -0.0052,-0.08693 -0.005,-0.112163 1.9e-4,-0.03202 8.24e-4,-0.116918 0.284624,-0.260784 0.100939,-0.05116 0.303328,-0.140441 0.524419,-0.163329 0.366289,-0.03785 0.607734,0.125287 0.680015,0.459429 0.195096,0.902121 0.01547,1.301127 -0.115713,1.592535 -0.02441,0.05427 -0.04749,0.105504 -0.06594,0.155151 l -0.01629,0.04375 c -0.0693,0.185839 -0.129219,0.346379 -0.110832,0.466278 a 0.10113039,0.10113039 0 0 1 -0.08464,0.115333 z m -0.877203,-2.381605 0.0039,0.07222 c 0.01116,0.188565 0.03196,0.539446 -0.02435,0.942192 -0.04064,0.29071 0.04812,0.574447 0.243664,0.778355 0.154517,0.161175 0.357855,0.250132 0.566837,0.250132 h 0.0043 c 0.0234,-0.09859 0.06227,-0.202705 0.104111,-0.314867 l 0.01616,-0.04349 c 0.02086,-0.05605 0.04527,-0.110324 0.07114,-0.167769 0.126239,-0.280503 0.283419,-0.629672 0.102399,-1.466676 -0.03582,-0.165803 -0.122752,-0.261735 -0.265603,-0.293373 -0.293436,-0.0648 -0.730738,0.155911 -0.822611,0.243283 z m 0.610586,-0.04292 c -0.0051,0.03576 0.0655,0.131248 0.157561,0.143993 0.09187,0.01287 0.170495,-0.06182 0.175504,-0.09758 0.005,-0.03576 -0.0655,-0.0752 -0.157561,-0.088 -0.092,-0.01281 -0.170621,0.0058 -0.175504,0.04159 z m 0.178675,0.179182 -0.02581,-0.0018 c -0.05707,-0.008 -0.114762,-0.04387 -0.154263,-0.09625 -0.01388,-0.01839 -0.03652,-0.05402 -0.03202,-0.08585 0.0064,-0.04666 0.06334,-0.07463 0.152171,-0.07463 0.01984,0 0.04051,0.0014 0.06132,0.0043 0.04857,0.0067 0.09365,0.02074 0.126937,0.03931 0.0577,0.03221 0.06195,0.06816 0.05935,0.08673 -0.0071,0.05154 -0.08908,0.128077 -0.187678,0.128077 z M 38.82239,36.724359 c 0.0029,0.02207 0.05751,0.09485 0.128648,0.104682 l 0.01655,0.0012 c 0.06569,0 0.114762,-0.05167 0.120532,-0.06861 -0.0061,-0.01154 -0.04831,-0.0402 -0.128394,-0.05135 a 0.36920518,0.36920518 0 0 0 -0.05205,-0.0037 c -0.05148,0 -0.07881,0.0116 -0.08528,0.01788 z m 2.76476,-0.07894 c 0.005,0.03576 -0.0655,0.131248 -0.157497,0.144056 -0.09194,0.01281 -0.170623,-0.06182 -0.175695,-0.09758 -0.0048,-0.03576 0.06569,-0.07526 0.157624,-0.088 0.09194,-0.01287 0.170495,0.0058 0.175568,0.04153 z m -0.178738,0.162317 c -0.08851,0 -0.164916,-0.06886 -0.171193,-0.113558 -0.0073,-0.05365 0.08103,-0.09441 0.171954,-0.107027 0.02004,-0.0028 0.03988,-0.0042 0.05897,-0.0042 0.07849,0 0.130488,0.02302 0.135686,0.06018 0.0034,0.02403 -0.01509,0.06112 -0.04685,0.0946 -0.02099,0.02201 -0.06505,0.06011 -0.125098,0.06841 z m 0.05979,-0.191039 c -0.0175,0 -0.03576,0.0014 -0.05428,0.0039 -0.09136,0.01274 -0.145894,0.04939 -0.143231,0.06905 0.0031,0.02162 0.06138,0.08445 0.137778,0.08445 l 0.01883,-0.0014 c 0.0499,-0.0069 0.08737,-0.0395 0.105252,-0.05827 0.02809,-0.02949 0.03925,-0.05725 0.03792,-0.0667 -0.0018,-0.01255 -0.03551,-0.03107 -0.102272,-0.03107 z m 0.2514,2.082399 a 0.10106699,0.10106699 0 0 1 -0.08395,-0.157434 c 0.21545,-0.321779 0.176012,-0.649897 0.137906,-0.967238 -0.01629,-0.135179 -0.03303,-0.274986 -0.02872,-0.40915 0.0044,-0.138032 0.02201,-0.251906 0.03893,-0.36204 0.0201,-0.130487 0.03912,-0.253746 0.03126,-0.400084 a 0.10115066,0.10115066 0 1 1 0.202007,-0.0109 c 0.009,0.167262 -0.01249,0.306752 -0.03329,0.441741 -0.01604,0.104173 -0.03265,0.211898 -0.03665,0.337756 -0.0039,0.118821 0.01128,0.244996 0.02733,0.378525 0.04058,0.33744 0.08654,0.719897 -0.170621,1.103939 a 0.10119379,0.10119379 0 0 1 -0.0842,0.04489 z"
         id="path4-2"
         style="fill:#2a2a2a;fill-opacity:1;stroke:none;stroke-width:0.0634046" /></g><path
       d="m 73.459411,21.022815 c 5.52897,0 10.01109,4.482117 10.01109,10.011089 0,5.528973 -4.48212,10.011089 -10.01109,10.011089 -5.52899,0 -13.18086,-5.481788 -10.0111,-10.011089 3.16977,-4.529302 4.48211,-10.011089 10.0111,-10.011089 z"
       fill="#f2f2f2"
       id="path11"
       style="fill:#ffefe4;fill-opacity:1;stroke-width:0.081391" /><path
       d="m 86.858521,21.499057 c -0.0898,0 -0.16278,0.073 -0.16278,0.162783 v 5.209021 c 0,0.08978 0.073,0.162783 0.16278,0.162783 0.0898,0 0.16278,-0.07301 0.16278,-0.162783 V 21.66184 c 0,-0.08978 -0.073,-0.162783 -0.16278,-0.162783 z"
       fill="#3f3d56"
       id="path12"
       style="stroke-width:0.081391" /><path
       d="m 59.511151,17.592291 c -0.0898,0 -0.16278,0.073 -0.16278,0.162781 v 1.302255 c 0,0.08978 0.073,0.162782 0.16278,0.162782 0.0898,0 0.16278,-0.073 0.16278,-0.162782 v -1.302256 c 0,-0.08978 -0.073,-0.162783 -0.16278,-0.16278 z"
       fill="#3f3d56"
       id="path13"
       style="stroke-width:0.081391;fill:#2f2e41;fill-opacity:1" /><path
       d="m 59.511151,21.499057 c -0.0898,0 -0.16278,0.073 -0.16278,0.162783 v 2.52312 c 0,0.08978 0.073,0.162781 0.16278,0.162781 0.0898,0 0.16278,-0.073 0.16278,-0.162781 v -2.52312 c 0,-0.08978 -0.073,-0.162783 -0.16278,-0.162783 z"
       fill="#3f3d56"
       id="path14"
       style="stroke-width:0.081391;fill:#2f2e41;fill-opacity:1" /><path
       d="m 59.511151,25.080261 c -0.0898,0 -0.16278,0.073 -0.16278,0.162781 v 2.52312 c 0,0.08978 0.073,0.162783 0.16278,0.162783 0.0898,0 0.16278,-0.073 0.16278,-0.162783 v -2.52312 c 0,-0.08978 -0.073,-0.162781 -0.16278,-0.162781 z"
       fill="#3f3d56"
       id="path15"
       style="stroke-width:0.081391;fill:#2f2e41;fill-opacity:1" /><path
       d="m 74.110531,12.464659 c -0.0898,0 -0.16277,0.073 -0.16277,0.162782 v 2.52312 c 0,0.08978 0.073,0.162782 0.16277,0.162782 0.0898,0 0.16279,-0.073 0.16279,-0.162782 v -2.52312 c 0,-0.08978 -0.073,-0.162782 -0.16279,-0.162782 z"
       fill="#3f3d56"
       id="path16"
       style="stroke-width:0.081391;fill:#2f2e41;fill-opacity:1" /><path
       d="m 69.082251,30.35909 h -5.63394 v -0.162782 h 5.63394 c 0.48942,0 0.88759,-0.398212 0.88759,-0.887671 v -3.809319 h 0.16278 v 3.809319 c 0,0.579196 -0.47118,1.050453 -1.05037,1.050453 z"
       fill="#6c63ff"
       id="path19"
       style="fill:#2f2e41;fill-opacity:1;stroke-width:0.081391" /><rect
       x="67.01841"
       y="38.616619"
       width="12.813873"
       height="0.16278194"
       fill="#6c63ff"
       id="rect19"
       style="fill:#2f2e41;fill-opacity:1;stroke-width:0.081391" /><g
       id="g25"
       transform="matrix(0.08139097,0,0,0.08139097,57.494136,8.477993)"><path
         d="m 374.34299,255.466 h -84.0918 c -4.53809,0 -8.22998,-3.69189 -8.22998,-8.22998 V 164.1701 c 0,-4.53809 3.69189,-8.22998 8.22998,-8.22998 h 84.0918 c 4.53809,0 8.22998,3.69189 8.22998,8.22998 v 83.06592 c 0,4.53809 -3.69189,8.22998 -8.22998,8.22998 z"
         fill="#e6e6e6"
         id="path20"
         style="fill:#e6d8ce;fill-opacity:1" /><path
         d="m 305.91171,158.39219 c -11.84012,0 -21.43842,9.5983 -21.43842,21.43842 v 65.64299 c 0,4.16435 3.37589,7.54022 7.54022,7.54022 h 51.41989 c 20.26184,0 36.68732,-16.42548 36.68732,-36.68733 V 165.9324 c 0,-4.16435 -3.37589,-7.54022 -7.54022,-7.54022 h -66.66879 v 2e-5 z"
         fill="#ffffff"
         id="path21"
         style="fill:#ffefe4;fill-opacity:1" /><g
         id="g24"
         style="fill:#e6d8ce;fill-opacity:1"><path
           d="m 354.81924,182.53161 h -45.22061 c -0.86273,0 -1.5647,-0.702 -1.5647,-1.56471 0,-0.86271 0.702,-1.56439 1.5647,-1.56439 h 45.22061 c 0.86273,0 1.56439,0.70166 1.56439,1.56439 0,0.86273 -0.70166,1.56471 -1.56439,1.56471 z"
           fill="#e6e6e6"
           id="path22"
           style="fill:#e6d8ce;fill-opacity:1" /><path
           d="m 354.81924,215.89521 h -45.22061 c -0.86273,0 -1.5647,-0.702 -1.5647,-1.56471 0,-0.86271 0.702,-1.56439 1.5647,-1.56439 h 45.22061 c 0.86273,0 1.56439,0.70166 1.56439,1.56439 0,0.86273 -0.70166,1.56471 -1.56439,1.56471 z"
           fill="#e6e6e6"
           id="path23"
           style="fill:#e6d8ce;fill-opacity:1" /><path
           d="m 373.1824,199.22434 h -81.9469 c -0.86273,0 -1.5647,-0.702 -1.5647,-1.56471 0,-0.86271 0.702,-1.56439 1.5647,-1.56439 h 81.9469 c 0.86273,0 1.56439,0.70166 1.56439,1.56439 0,0.86273 -0.70166,1.56471 -1.56439,1.56471 z"
           fill="#e6e6e6"
           id="path24"
           style="fill:#e6d8ce;fill-opacity:1" /></g><path
         d="m 374.01913,229.46084 h -29.60361 c -0.86273,0 -1.5647,-0.702 -1.5647,-1.56471 0,-0.86271 0.702,-1.56439 1.5647,-1.56439 h 29.60361 c 0.86273,0 1.56439,0.70166 1.56439,1.56439 0,0.86273 -0.70166,1.56471 -1.56439,1.56471 z"
         fill="#e6e6e6"
         id="path25"
         style="fill:#e6d8ce;fill-opacity:1" /></g><g
       id="g31"
       transform="matrix(0.08139097,0,0,0.08139097,57.494136,8.477993)"><path
         d="m 197.71127,420.97035 h -66.77454 c -3.60355,0 -6.53516,-2.93161 -6.53516,-6.53516 v -65.95993 c 0,-3.60355 2.93161,-6.53516 6.53516,-6.53516 h 66.77457 c 3.60355,0 6.53516,2.93161 6.53516,6.53516 v 65.95993 c 0,3.60355 -2.93161,6.53516 -6.53516,6.53516 h -2e-5 z"
         fill="#e6e6e6"
         id="path26"
         style="fill:#e6d8ce;fill-opacity:1" /><path
         d="m 143.37224,343.88719 c -9.40184,0 -17.02355,7.6217 -17.02355,17.02356 v 52.12497 c 0,3.30679 2.68067,5.98746 5.98745,5.98746 H 173.167 c 16.08928,0 29.13222,-13.04294 29.13222,-29.1322 v -40.0163 c 0,-3.30679 -2.68066,-5.98746 -5.98746,-5.98746 h -52.93953 l 2e-5,-3e-5 z"
         fill="#ffffff"
         id="path27-6"
         style="fill:#ffefe4;fill-opacity:1" /><g
         id="g30"
         style="fill:#e6d8ce;fill-opacity:1"><path
           d="m 182.20811,363.05549 h -35.9082 c -0.68506,0 -1.24249,-0.55743 -1.24249,-1.24249 0,-0.68506 0.55742,-1.24222 1.24249,-1.24222 h 35.9082 c 0.68506,0 1.24223,0.55716 1.24223,1.24222 0,0.68506 -0.55717,1.24249 -1.24223,1.24249 z"
           fill="#e6e6e6"
           id="path28-2"
           style="fill:#e6d8ce;fill-opacity:1" /><path
           d="m 182.20811,389.54847 h -35.9082 c -0.68506,0 -1.24249,-0.55743 -1.24249,-1.24249 0,-0.68506 0.55742,-1.24222 1.24249,-1.24222 h 35.9082 c 0.68506,0 1.24223,0.55716 1.24223,1.24222 0,0.68506 -0.55717,1.24249 -1.24223,1.24249 z"
           fill="#e6e6e6"
           id="path29"
           style="fill:#e6d8ce;fill-opacity:1" /><path
           d="m 196.78969,376.31068 h -65.07135 c -0.68506,0 -1.24249,-0.55743 -1.24249,-1.24249 0,-0.68506 0.55742,-1.24222 1.24249,-1.24222 h 65.07135 c 0.68506,0 1.24223,0.55716 1.24223,1.24222 0,0.68506 -0.55717,1.24249 -1.24223,1.24249 z"
           fill="#e6e6e6"
           id="path30"
           style="fill:#e6d8ce;fill-opacity:1" /></g><path
         d="m 197.4541,400.32048 h -23.50725 c -0.68506,0 -1.24249,-0.55743 -1.24249,-1.24249 0,-0.68506 0.55742,-1.24222 1.24249,-1.24222 h 23.50725 c 0.68506,0 1.24223,0.55716 1.24223,1.24222 0,0.68506 -0.55717,1.24249 -1.24223,1.24249 z"
         fill="#e6e6e6"
         id="path31"
         style="fill:#e6d8ce;fill-opacity:1" /></g><g
       id="g37"
       transform="matrix(0.08139097,0,0,0.08139097,57.494136,8.477993)"><path
         d="m 151.04003,208.62567 h -49.3827 c -2.66499,0 -4.83304,-2.16805 -4.83304,-4.83303 v -48.78026 c 0,-2.66498 2.16805,-4.83303 4.83303,-4.83303 h 49.38271 c 2.66498,0 4.83303,2.16805 4.83303,4.83303 v 48.78026 c 0,2.66498 -2.16805,4.83303 -4.83303,4.83303 h -1e-5 z"
         fill="#e6e6e6"
         id="path32"
         style="fill:#e6d8ce;fill-opacity:1" /><path
         d="m 110.85394,151.6193 c -6.95307,0 -12.58966,5.63658 -12.58966,12.58967 v 38.5487 c 0,2.44552 1.98247,4.42799 4.42798,4.42799 h 30.19621 c 11.89873,0 21.54455,-9.64582 21.54455,-21.54454 v -29.5938 c 0,-2.44552 -1.98247,-4.42799 -4.42799,-4.42799 h -39.1511 v -2e-5 z"
         fill="#ffffff"
         id="path33"
         style="fill:#ffefe4;fill-opacity:1" /><g
         id="g36"
         style="fill:#e6d8ce;fill-opacity:1"><path
           d="m 139.57477,165.7951 h -26.55569 c -0.50663,0 -0.91888,-0.41225 -0.91888,-0.91888 0,-0.50663 0.41224,-0.91867 0.91888,-0.91867 h 26.55569 c 0.50663,0 0.91869,0.41204 0.91869,0.91867 0,0.50663 -0.41206,0.91888 -0.91869,0.91888 z"
           fill="#e6e6e6"
           id="path34"
           style="fill:#e6d8ce;fill-opacity:1" /><path
           d="m 139.57477,185.38782 h -26.55569 c -0.50663,0 -0.91888,-0.41225 -0.91888,-0.91888 0,-0.50663 0.41224,-0.91867 0.91888,-0.91867 h 26.55569 c 0.50663,0 0.91869,0.41204 0.91869,0.91867 0,0.50663 -0.41206,0.91888 -0.91869,0.91888 z"
           fill="#e6e6e6"
           id="path35"
           style="fill:#e6d8ce;fill-opacity:1" /><path
           d="m 150.35848,175.59789 h -48.12311 c -0.50663,0 -0.91888,-0.41225 -0.91888,-0.91888 0,-0.50663 0.41224,-0.91867 0.91888,-0.91867 h 48.12311 c 0.50663,0 0.91869,0.41204 0.91869,0.91867 0,0.50663 -0.41206,0.91888 -0.91869,0.91888 z"
           fill="#e6e6e6"
           id="path36"
           style="fill:#e6d8ce;fill-opacity:1" /></g><path
         d="M 150.84984,193.35418 H 133.4652 c -0.50663,0 -0.91888,-0.41225 -0.91888,-0.91888 0,-0.50663 0.41224,-0.91867 0.91888,-0.91867 h 17.38464 c 0.50663,0 0.91869,0.41204 0.91869,0.91867 0,0.50663 -0.41206,0.91888 -0.91869,0.91888 z"
         fill="#e6e6e6"
         id="path37"
         style="fill:#e6d8ce;fill-opacity:1" /></g><circle
       cx="81.517113"
       cy="29.650257"
       r="0.81390971"
       fill="#6c63ff"
       id="circle37"
       style="fill:#2f2e41;fill-opacity:1;stroke-width:0.081391" /><circle
       cx="70.040985"
       cy="25.499317"
       r="0.81390971"
       fill="#6c63ff"
       id="circle38"
       style="fill:#2f2e41;fill-opacity:1;stroke-width:0.081391" /><circle
       cx="73.947762"
       cy="36.649883"
       r="0.81390971"
       fill="#6c63ff"
       id="circle39"
       style="fill:#2f2e41;fill-opacity:1;stroke-width:0.081391" /><g
       id="g40"
       transform="matrix(0.08139097,0,0,0.08139097,57.494136,8.477993)"
       style="fill:#e6d8ce;fill-opacity:1"><ellipse
         cx="223.75633"
         cy="66.652122"
         rx="12.46327"
         ry="12.20069"
         fill="#f2f2f2"
         id="ellipse39"
         style="fill:#e6d8ce;fill-opacity:1" /><path
         d="m 323.66919,62.47819 h -67.08496 c -2.30142,0 -4.17392,-1.87249 -4.17392,-4.17392 0,-2.30143 1.8725,-4.17392 4.17392,-4.17392 h 67.08496 c 2.30142,0 4.17392,1.87249 4.17392,4.17392 0,2.30143 -1.8725,4.17392 -4.17392,4.17392 z"
         fill="#f2f2f2"
         id="path39"
         style="fill:#e6d8ce;fill-opacity:1" /><path
         d="M 376.02252,76.6053 H 256.58423 c -2.30142,0 -4.17392,-1.87249 -4.17392,-4.17392 0,-2.30143 1.8725,-4.17392 4.17392,-4.17392 h 119.43829 c 2.30142,0 4.17392,1.87249 4.17392,4.17392 0,2.30143 -1.8725,4.17392 -4.17392,4.17392 z"
         fill="#f2f2f2"
         id="path40"
         style="fill:#e6d8ce;fill-opacity:1" /></g><g
       id="g42"
       transform="matrix(0.08139097,0,0,0.08139097,57.494136,8.477993)"
       style="fill:#e6d8ce;fill-opacity:1"><ellipse
         cx="43.359112"
         cy="122.23425"
         rx="8.0660496"
         ry="7.8961"
         fill="#f2f2f2"
         id="ellipse40"
         style="fill:#e6d8ce;fill-opacity:1" /><path
         d="m 108.02125,119.53295 h -43.4164 c -1.48945,0 -2.7013,-1.21185 -2.7013,-2.7013 0,-1.48945 1.21185,-2.7013 2.7013,-2.7013 h 43.4164 c 1.48945,0 2.7013,1.21185 2.7013,2.7013 0,1.48945 -1.21185,2.7013 -2.70129,2.7013 z"
         fill="#f2f2f2"
         id="path41"
         style="fill:#e6d8ce;fill-opacity:1" /><path
         d="m 141.90355,128.67582 h -77.2987 c -1.48945,0 -2.7013,-1.21185 -2.7013,-2.7013 0,-1.48945 1.21185,-2.7013 2.7013,-2.7013 h 77.2987 c 1.48946,0 2.70129,1.21185 2.70129,2.7013 0,1.48945 -1.21185,2.7013 -2.70129,2.7013 z"
         fill="#f2f2f2"
         id="path42"
         style="fill:#e6d8ce;fill-opacity:1" /></g><g
       id="g44"
       transform="matrix(0.08139097,0,0,0.08139097,57.494136,8.477993)"
       style="fill:#e6d8ce;fill-opacity:1"><ellipse
         cx="285.3591"
         cy="403.23425"
         rx="8.06604"
         ry="7.89609"
         fill="#f2f2f2"
         id="ellipse42"
         style="fill:#e6d8ce;fill-opacity:1" /><path
         d="m 350.02124,400.53295 h -43.41641 c -1.48944,0 -2.70129,-1.21185 -2.70129,-2.70129 0,-1.48944 1.21185,-2.70129 2.70129,-2.70129 h 43.41641 c 1.48944,0 2.70129,1.21185 2.70129,2.70129 0,1.48944 -1.21185,2.70129 -2.70129,2.70129 z"
         fill="#f2f2f2"
         id="path43"
         style="fill:#e6d8ce;fill-opacity:1" /><path
         d="m 383.90356,409.67581 h -77.29871 c -1.48944,0 -2.70129,-1.21185 -2.70129,-2.70129 0,-1.48944 1.21185,-2.70129 2.70129,-2.70129 h 77.29871 c 1.48944,0 2.70129,1.21185 2.70129,2.70129 0,1.48944 -1.21185,2.70129 -2.70129,2.70129 z"
         fill="#f2f2f2"
         id="path44"
         style="fill:#e6d8ce;fill-opacity:1" /></g><rect
       x="72.665825"
       y="21.172575"
       width="0.16278194"
       height="7.732142"
       fill="#e6e6e6"
       id="rect44"
       style="fill:#e6d8ce;fill-opacity:1;stroke-width:0.081391" /><circle
       cx="72.747223"
       cy="28.904718"
       r="0.48834661"
       fill="#e6e6e6"
       id="circle44"
       style="fill:#e6d8ce;fill-opacity:1;stroke-width:0.081391" /><circle
       cx="80.153809"
       cy="34.520695"
       r="0.4883458"
       fill="#e6e6e6"
       id="circle45"
       style="fill:#e6d8ce;fill-opacity:1;stroke-width:0.081391" /><circle
       cx="66.96846"
       cy="27.846634"
       r="0.4883458"
       fill="#e6e6e6"
       id="circle46"
       style="fill:#e6d8ce;fill-opacity:1;stroke-width:0.081391" /><rect
       x="63.242847"
       y="29.855606"
       width="2.6718922"
       height="0.16285682"
       transform="rotate(-1.7340108)"
       fill="#e6e6e6"
       id="rect46"
       style="fill:#e6d8ce;fill-opacity:1;stroke-width:0.081391" /><polygon
       points="277.4603,342.94012 277.4603,319.97039 279.4603,319.97039 279.4603,340.94012 327.21616,340.94012 327.21616,342.94012 "
       fill="#e6e6e6"
       id="polygon46"
       transform="matrix(0.08139097,0,0,0.08139097,57.494136,8.477993)"
       style="fill:#e6d8ce;fill-opacity:1" /><circle
       cx="66.768005"
       cy="33.178978"
       r="0.4883458"
       fill="#e6e6e6"
       id="circle47"
       style="fill:#e6d8ce;fill-opacity:1;stroke-width:0.081391" /><polygon
       points="112.40511,326.45526 112.40511,303.48553 114.40511,303.48553 114.40511,324.45526 162.16098,324.45526 162.16098,326.45526 "
       fill="#e6e6e6"
       id="polygon47"
       transform="matrix(0.08139097,0,0,0.08139097,57.494136,8.477993)"
       style="fill:#e6d8ce;fill-opacity:1" /><rect
       x="63.632866"
       y="31.320774"
       width="19.451014"
       height="0.16278194"
       fill="#e6e6e6"
       id="rect47"
       style="fill:#e6d8ce;fill-opacity:1;stroke-width:0.081391" /><path
       d="m 32.464182,41.421814 c -0.103244,-0.01232 -0.211534,-0.02821 -0.240559,-0.03538 a 2.6083916,2.6083916 0 0 0 -0.128852,-0.02713 1.9553987,1.9553987 0 0 1 -0.146647,-0.03434 c -0.22488,-0.06445 -0.240993,-0.06972 -0.410534,-0.139051 -0.155978,-0.06359 -0.443359,-0.212131 -0.541666,-0.279731 -0.02691,-0.01866 -0.05208,-0.03369 -0.05593,-0.03369 -0.0038,0 -0.06673,-0.04427 -0.139866,-0.09836 -0.46495,-0.344129 -0.814016,-0.761879 -1.06624,-1.276417 -0.0434,-0.08838 -0.07883,-0.166775 -0.07883,-0.174154 0,-0.0073 -0.0078,-0.0274 -0.01736,-0.04432 -0.01969,-0.03521 -0.04775,-0.111057 -0.07037,-0.189452 a 1.0876166,1.0876166 0 0 0 -0.03391,-0.09836 c -0.01057,-0.02495 -0.0191,-0.05534 -0.0191,-0.0676 0,-0.01232 -0.01058,-0.05235 -0.0235,-0.08925 -0.01291,-0.03662 -0.02333,-0.07986 -0.02333,-0.09603 0,-0.01606 -0.01014,-0.07161 -0.02267,-0.123481 -0.03049,-0.128041 -0.06293,-0.459692 -0.06293,-0.645563 0,-0.185656 0.03245,-0.517306 0.06293,-0.64529 0.01248,-0.05192 0.02267,-0.108507 0.02267,-0.125867 0,-0.01742 0.0078,-0.05154 0.01737,-0.07596 0.0098,-0.02431 0.02224,-0.06798 0.02799,-0.097 0.006,-0.02903 0.01953,-0.07905 0.03055,-0.111491 l 0.03201,-0.09364 c 0.02349,-0.07015 0.0453,-0.129503 0.05572,-0.152615 0.0059,-0.01291 0.02924,-0.06564 0.05192,-0.117187 0.03668,-0.08328 0.115289,-0.240343 0.161241,-0.322537 0.01677,-0.03011 0.02312,-0.04009 0.113823,-0.181857 0.143717,-0.225043 0.389323,-0.505044 0.617946,-0.704641 0.08056,-0.07037 0.349717,-0.274686 0.361815,-0.274686 0.0033,0 0.02875,-0.01525 0.05658,-0.03391 0.07308,-0.04894 0.144748,-0.09049 0.238172,-0.137315 a 2.8786818,2.8786818 0 0 0 0.09961,-0.0517 c 0.01546,-0.0089 0.04449,-0.02224 0.193522,-0.08898 0.03283,-0.01465 0.0682,-0.02799 0.170138,-0.06364 0.02246,-0.0078 0.0676,-0.02436 0.09983,-0.03646 0.03245,-0.01205 0.07058,-0.02202 0.0848,-0.02202 0.014,0 0.05084,-0.0098 0.08182,-0.02181 0.03092,-0.0121 0.08707,-0.02587 0.125,-0.03055 0.03776,-0.0044 0.08795,-0.01503 0.111491,-0.02332 0.02333,-0.008 0.08734,-0.01845 0.142197,-0.02305 a 3.9372728,3.9372728 0 0 0 0.213813,-0.02523 c 0.145833,-0.02138 0.462889,-0.02138 0.607203,0 a 4.070085,4.070085 0 0 0 0.205132,0.02414 c 0.0517,0.0043 0.117622,0.01508 0.146647,0.02398 0.02902,0.0087 0.07927,0.01953 0.11149,0.0235 0.03223,0.0043 0.08648,0.01763 0.120551,0.0299 0.03418,0.01248 0.07292,0.02246 0.08626,0.02246 0.01334,0 0.0409,0.0074 0.06104,0.01676 0.02035,0.0091 0.06337,0.02436 0.09581,0.03391 0.03222,0.0098 0.08751,0.02902 0.123155,0.04324 0.03538,0.01416 0.08284,0.03283 0.105523,0.04128 0.04178,0.01573 0.350476,0.170192 0.392468,0.196505 0.340766,0.212511 0.516058,0.351345 0.751734,0.594834 0.284179,0.293727 0.472819,0.573458 0.664821,0.98524 0.01356,0.02908 0.03429,0.0721 0.04617,0.09538 0.01167,0.02355 0.02143,0.05111 0.02143,0.06131 0,0.01031 0.0098,0.04123 0.02181,0.06884 0.03266,0.07503 0.0606,0.160428 0.07379,0.225694 0.0065,0.03201 0.01861,0.07161 0.02686,0.08795 0.0083,0.01627 0.01801,0.05767 0.02186,0.09158 0.0038,0.03385 0.01503,0.08941 0.02458,0.1231 0.05534,0.191569 0.08285,0.755966 0.04937,1.005586 -0.0099,0.07416 -0.02116,0.163844 -0.02496,0.199218 -0.0064,0.0606 -0.03842,0.217231 -0.06575,0.322536 l -0.02821,0.11149 c -0.05317,0.214681 -0.18457,0.520507 -0.344996,0.803438 -0.06359,0.112304 -0.276747,0.416014 -0.317002,0.451605 -0.0036,0.0032 -0.02165,0.02441 -0.03988,0.04682 -0.01823,0.02267 -0.07671,0.08605 -0.129666,0.140733 -0.233343,0.240939 -0.421548,0.389918 -0.75195,0.595104 -0.03917,0.02436 -0.371473,0.186686 -0.433593,0.211914 -0.03222,0.01291 -0.08605,0.03472 -0.11952,0.04829 -0.03326,0.0134 -0.07037,0.02463 -0.08203,0.02485 -0.01167,1.63e-4 -0.04237,0.01058 -0.06825,0.02305 -0.02582,0.01248 -0.0587,0.02289 -0.0733,0.02312 -0.01443,2.26e-4 -0.05658,0.01041 -0.0937,0.02267 -0.03705,0.01248 -0.0886,0.02587 -0.114474,0.02984 -0.02582,0.0041 -0.08111,0.01508 -0.123101,0.02441 -0.04194,0.0093 -0.168728,0.02756 -0.281412,0.04047 a 3.2042018,3.2042018 0 0 1 -0.756563,-0.0017 z m 0.255153,-0.678167 c 0.01627,-0.01269 0.03304,-0.03797 0.03749,-0.05572 0.0098,-0.03923 1.586042,-3.19932 1.615718,-3.238924 0.02501,-0.03348 0.02735,-0.08707 0.0044,-0.105957 -0.01204,-0.01014 -0.162978,-0.01334 -0.565863,-0.01269 -0.302191,6.56e-4 -0.556259,8.61e-4 -0.56456,6.56e-4 -0.01226,-4.3e-4 -0.01481,-0.202364 -0.01357,-1.067271 8.62e-4,-0.586859 -0.0019,-1.072372 -0.0061,-1.079099 -0.0042,-0.0069 -0.02078,-0.01232 -0.03689,-0.01232 -0.02267,0 -0.03326,0.0098 -0.0472,0.04384 -0.02632,0.06337 -0.09901,0.207248 -0.452907,0.894366 a 192.84721,192.84721 0 0 0 -0.219964,0.428061 c -0.06271,0.122721 -0.161676,0.315374 -0.219564,0.428058 a 474.78436,474.78436 0 0 0 -0.46647,0.909232 c -0.267631,0.522785 -0.300021,0.585122 -0.311522,0.598902 -0.02224,0.02691 -0.03434,0.08898 -0.02181,0.112305 0.0114,0.02138 0.03412,0.02224 0.599119,0.02138 0.32297,-3.9e-4 0.589354,0.0014 0.592121,0.0038 0.0074,0.0077 0.0047,2.024191 -0.003,2.07226 -0.005,0.03157 -0.0017,0.04829 0.01275,0.06271 0.02495,0.02501 0.03179,0.02479 0.06782,-0.0036 z m 0,0"
       fill="#049688"
       id="path1-7"
       style="stroke-width:0.0542533" /><polygon
       fill="#546e7a"
       points="21.906,31.772 24.507,29.048 27.107,31.772 27.107,43 21.906,43 "
       id="polygon1"
       transform="matrix(0.18165491,0,0,0.18165491,36.260847,33.559446)" /><polygon
       fill="#f50057"
       points="17.737,29.058 21.442,28.383 21.945,32.115 15.345,41.199 11.138,38.141 "
       id="polygon2"
       transform="matrix(0.18165491,0,0,0.18165491,36.260847,33.559446)" /><polygon
       fill="#d500f9"
       points="15.962,24.409 19.355,26.041 17.569,29.356 6.89,32.825 5.283,27.879 "
       id="polygon3"
       transform="matrix(0.18165491,0,0,0.18165491,36.260847,33.559446)" /><polygon
       fill="#29b6f6"
       points="17.256,19.607 19.042,22.922 15.649,24.554 4.97,21.084 6.577,16.137 "
       id="polygon4"
       transform="matrix(0.18165491,0,0,0.18165491,36.260847,33.559446)" /><polygon
       fill="#00e5ff"
       points="21.126,16.482 20.623,20.214 16.918,19.539 10.318,10.455 14.526,7.398 "
       id="polygon5"
       transform="matrix(0.18165491,0,0,0.18165491,36.260847,33.559446)" /><polygon
       fill="#546e7a"
       points="26.094,16.228 23.493,18.952 20.893,16.228 20.893,5 26.094,5 "
       id="polygon6"
       transform="matrix(0.18165491,0,0,0.18165491,36.260847,33.559446)" /><polygon
       fill="#f50057"
       points="30.262,18.943 26.558,19.618 26.055,15.886 32.654,6.802 36.862,9.859 "
       id="polygon7"
       transform="matrix(0.18165491,0,0,0.18165491,36.260847,33.559446)" /><polygon
       fill="#d500f9"
       points="32.039,23.59 28.645,21.958 30.431,18.643 41.11,15.174 42.717,20.12 "
       id="polygon8"
       transform="matrix(0.18165491,0,0,0.18165491,36.260847,33.559446)" /><polygon
       fill="#29b6f6"
       points="30.744,28.393 28.958,25.078 32.351,23.447 43.03,26.916 41.423,31.863 "
       id="polygon9"
       transform="matrix(0.18165491,0,0,0.18165491,36.260847,33.559446)" /><polygon
       fill="#00e5ff"
       points="26.874,31.518 27.378,27.786 31.082,28.461 37.682,37.545 33.474,40.602 "
       id="polygon10"
       transform="matrix(0.18165491,0,0,0.18165491,36.260847,33.559446)" /></g><g
     inkscape:groupmode="layer"
     id="layer2"
     inkscape:label="Texto"><g
       id="g2"
       transform="translate(5.4477056,-1.6222087)"><rect
         style="fill:#ffefe4;fill-opacity:1;stroke:none;stroke-width:0.264583"
         id="rect2"
         width="29.990446"
         height="5.4393554"
         x="9.5796309"
         y="22.452835"
         inkscape:label="fundo-titulo" /><text
         xml:space="preserve"
         style="font-size:3.175px;fill:#141414;fill-opacity:1;stroke:none;stroke-width:0.264583"
         x="11.580015"
         y="26.405834"
         id="text1-6"
         inkscape:label="Titulo"><tspan
           sodipodi:role="line"
           id="tspan1-2"
           style="font-style:normal;font-variant:normal;font-weight:bold;font-stretch:normal;font-family:'Liberation Sans';-inkscape-font-specification:'Liberation Sans Bold';fill:#141414;fill-opacity:1;stroke-width:0.264583"
           x="11.580015"
           y="26.405834">FASAPI-BASE</tspan></text></g><path
       style="fill:#ffefe4;fill-opacity:1;stroke:#ffefe4;stroke-width:0.251425;stroke-opacity:1"
       d="M 7.0067039,18.059233 H 56.15555"
       id="path2" /><text
       xml:space="preserve"
       style="font-size:3.175px;display:inline;fill:#ffefe4;fill-opacity:1;stroke:none;stroke-width:0.264583"
       x="7.6397676"
       y="8.8094158"
       id="text1"
       inkscape:label="Sub"><tspan
         sodipodi:role="line"
         id="tspan1"
         style="font-style:normal;font-variant:normal;font-weight:bold;font-stretch:normal;font-family:'Liberation Sans';-inkscape-font-specification:'Liberation Sans Bold';fill:#ffefe4;fill-opacity:1;stroke-width:0.264583"
         x="7.6397676"
         y="8.8094158">BASE PARA CRIAÇÃO DE API'S</tspan><tspan
         sodipodi:role="line"
         style="font-style:normal;font-variant:normal;font-weight:bold;font-stretch:normal;font-family:'Liberation Sans';-inkscape-font-specification:'Liberation Sans Bold';fill:#ffefe4;fill-opacity:1;stroke-width:0.264583"
         x="7.6397676"
         y="12.807125"
         id="tspan154">COM FAST-API E </tspan><tspan
         sodipodi:role="line"
         style="font-style:normal;font-variant:normal;font-weight:bold;font-stretch:normal;font-family:'Liberation Sans';-inkscape-font-specification:'Liberation Sans Bold';fill:#ffefe4;fill-opacity:1;stroke-width:0.264583"
         x="7.6397676"
         y="16.804832"
         id="tspan155">AUTENTICAÇÃO JWT</tspan></text></g></svg>
