<?xml version="1.0" encoding="UTF-8" standalone="no"?>
<!-- Created with Inkscape (http://www.inkscape.org/) -->

<svg
   width="210mm"
   height="297mm"
   viewBox="0 0 210 297"
   version="1.1"
   id="svg1"
   xml:space="preserve"
   inkscape:version="1.4.2 (ebf0e940d0, 2025-05-08)"
   sodipodi:docname="inomeado.svg"
   xmlns:inkscape="http://www.inkscape.org/namespaces/inkscape"
   xmlns:sodipodi="http://sodipodi.sourceforge.net/DTD/sodipodi-0.dtd"
   xmlns:xlink="http://www.w3.org/1999/xlink"
   xmlns="http://www.w3.org/2000/svg"
   xmlns:svg="http://www.w3.org/2000/svg"><sodipodi:namedview
     id="namedview1"
     pagecolor="#ffffff"
     bordercolor="#000000"
     borderopacity="0.25"
     inkscape:showpageshadow="2"
     inkscape:pageopacity="0.0"
     inkscape:pagecheckerboard="0"
     inkscape:deskcolor="#d1d1d1"
     inkscape:document-units="mm"
     inkscape:zoom="0.83555129"
     inkscape:cx="397.34246"
     inkscape:cy="894.02053"
     inkscape:window-width="1865"
     inkscape:window-height="1012"
     inkscape:window-x="0"
     inkscape:window-y="0"
     inkscape:window-maximized="1"
     inkscape:current-layer="layer1" /><defs
     id="defs1"><linearGradient
       id="linearGradient252"
       inkscape:collect="always"><stop
         style="stop-color:#3666be;stop-opacity:1;"
         offset="0"
         id="stop251" /><stop
         style="stop-color:#33cfca;stop-opacity:1;"
         offset="1"
         id="stop252" /></linearGradient><linearGradient
       id="linearGradient250"
       inkscape:collect="always"><stop
         style="stop-color:#33a3c5;stop-opacity:0.89411765;"
         offset="0"
         id="stop249" /><stop
         style="stop-color:#33c1c8;stop-opacity:1;"
         offset="1"
         id="stop250" /></linearGradient><linearGradient
       id="linearGradient245"
       inkscape:collect="always"><stop
         style="stop-color:#36478d;stop-opacity:1;"
         offset="0"
         id="stop245" /><stop
         style="stop-color:#3393ae;stop-opacity:1;"
         offset="1"
         id="stop246" /></linearGradient><linearGradient
       inkscape:collect="always"
       xlink:href="#linearGradient245"
       id="linearGradient246"
       x1="109.90616"
       y1="272.86993"
       x2="100.18154"
       y2="217.71887"
       gradientUnits="userSpaceOnUse"
       gradientTransform="translate(3.1156616,-88.128174)" /><linearGradient
       inkscape:collect="always"
       xlink:href="#linearGradient250"
       id="linearGradient249"
       gradientUnits="userSpaceOnUse"
       x1="109.90616"
       y1="272.86993"
       x2="100.18154"
       y2="217.71887"
       gradientTransform="matrix(0.3950504,0,0,0.09863675,74.509619,122.03956)" /><linearGradient
       inkscape:collect="always"
       xlink:href="#linearGradient252"
       id="linearGradient251"
       gradientUnits="userSpaceOnUse"
       gradientTransform="matrix(0.50575993,0,0,0.50575993,41.839887,17.163165)"
       x1="109.90616"
       y1="272.86993"
       x2="100.18154"
       y2="217.71887" /></defs><g
     inkscape:label="Camada 1"
     inkscape:groupmode="layer"
     id="layer1"><g
       id="g252"
       transform="matrix(2.3810573,0,0,2.3810573,-136.83364,-268.73025)"><rect
         style="fill:url(#linearGradient251);stroke:none;stroke-width:0.13959"
         id="rect245-7"
         width="28.183891"
         height="23.231684"
         x="80.874939"
         y="129.60744"
         ry="8.833436" /><path
         style="fill:#73777c;stroke:none"
         d="m 102.04161,153.89744 0.26458,0.26459 -0.26458,-0.26459 m -22.489586,0.26459 0.264583,0.26458 -0.264583,-0.26458 m 22.754166,0 0.26458,0.26458 z"
         id="path139" /><path
         style="fill:#354e8d;stroke:none"
         d="m 79.816607,153.89744 0.264583,0.26459 z"
         id="path138" /><path
         style="fill:#837fa7;stroke:none"
         d="m 101.77703,153.63286 0.26458,0.26458 z"
         id="path137" /><path
         style="fill:#73777c;stroke:none"
         d="m 80.345774,153.63286 0.264583,0.26458 z"
         id="path136" /><path
         style="fill:#837fa7;stroke:none"
         d="m 101.51243,153.36828 0.26459,0.26458 z"
         id="path135" /><path
         style="fill:#73777c;stroke:none"
         d="m 101.24786,153.10369 0.26457,0.26459 z"
         id="path134" /><path
         style="fill:#354e8d;stroke:none"
         d="m 100.98328,152.83911 0.26458,0.26458 -0.26458,-0.26458 m -19.843756,0.26458 0.264583,0.26459 z"
         id="path133" /><path
         style="fill:#73777c;stroke:none"
         d="m 82.46244,152.57453 0.264584,0.26458 z"
         id="path132" /><path
         style="fill:#354e8d;stroke:none"
         d="m 100.18953,152.30994 0.26458,0.26459 z"
         id="path131" /><path
         style="fill:#837fa7;stroke:none"
         d="m 83.25619,152.30994 0.264584,0.26459 z"
         id="path130" /><path
         style="fill:#354e8d;stroke:none"
         d="m 99.660355,152.04536 0.26458,0.26458 z"
         id="path129" /><path
         style="fill:#73777c;stroke:none"
         d="m 98.072855,151.51619 0.26458,0.26459 -0.26458,-0.26459 m -12.964581,0.26459 0.264583,0.26458 -0.264583,-0.26458 m 13.758331,0 0.26458,0.26458 -0.26458,-0.26458 m -14.816665,0.26458 0.264584,0.26458 z"
         id="path128" /><path
         style="fill:#837fa7;stroke:none"
         d="m 86.960357,151.51619 0.264583,0.26459 z"
         id="path126" /><path
         style="fill:#73777c;stroke:none"
         d="m 86.695774,151.51619 0.264583,0.26459 z"
         id="path125" /><path
         style="fill:#354e8d;stroke:none"
         d="m 86.43119,151.51619 0.264584,0.26459 z"
         id="path124" /><rect
         style="fill:url(#linearGradient246);stroke:none;stroke-width:0.276"
         id="rect245"
         width="55.72583"
         height="45.934212"
         x="80.296654"
         y="134.19916"
         ry="13.10349" /><rect
         style="fill:url(#linearGradient249);stroke:none;stroke-width:0.0544822"
         id="rect245-8"
         width="22.014511"
         height="4.5308013"
         x="105"
         y="143.96919"
         ry="1.2924856" /></g><text
       xml:space="preserve"
       style="font-size:3.175px;display:inline;fill:#ffefe4;fill-opacity:1;stroke:none;stroke-width:0.264583"
       x="139.8616"
       y="78.711365"
       id="text1"
       inkscape:label="Sub"><tspan
         sodipodi:role="line"
         id="tspan1"
         style="font-style:normal;font-variant:normal;font-weight:bold;font-stretch:normal;font-family:'Liberation Sans';-inkscape-font-specification:'Liberation Sans Bold';text-align:center;text-anchor:middle;fill:#ffefe4;fill-opacity:1;stroke-width:0.264583"
         x="139.8616"
         y="78.711365">DIGITAR COORDENADAS </tspan><tspan
         sodipodi:role="line"
         style="font-style:normal;font-variant:normal;font-weight:bold;font-stretch:normal;font-family:'Liberation Sans';-inkscape-font-specification:'Liberation Sans Bold';text-align:center;text-anchor:middle;fill:#ffefe4;fill-opacity:1;stroke-width:0.264583"
         x="139.8616"
         y="82.709076"
         id="tspan7">UTM NO</tspan></text><path
       style="fill:#ebebeb;fill-opacity:1;stroke-width:0.647336"
       d="m 15.534342,283.66019 c -0.441987,-0.0926 -1.153603,-0.44152 -1.62711,-0.798 -0.462858,-0.34845 -1.079335,-0.98721 -1.36995,-1.41946 -0.293606,-0.43672 -0.617047,-1.2274 -0.727916,-1.77946 -0.144945,-0.72175 -0.198791,-6.31486 -0.196849,-20.44739 0.002,-15.37428 0.04946,-19.65258 0.225752,-20.40141 0.122703,-0.52112 0.473896,-1.3304 0.780448,-1.79836 0.306552,-0.46799 0.941407,-1.10477 1.410784,-1.41507 0.485567,-0.32101 1.251248,-0.63774 1.776392,-0.73482 0.563383,-0.10414 4.580025,-0.15125 10.309832,-0.12088 9.303314,0.0492 9.394972,0.0532 10.294536,0.43592 0.499206,0.21241 1.308479,0.68978 1.798391,1.06083 0.489912,0.37105 1.353188,1.2322 1.918397,1.91366 0.565198,0.68145 1.197557,1.41798 1.405221,1.63673 l 0.377586,0.39772 h 12.50237 c 8.62936,0 12.781269,0.0598 13.402648,0.19308 0.495143,0.10623 1.306411,0.46273 1.80281,0.79232 0.502775,0.33381 1.129607,0.9531 1.415166,1.39811 0.2991,0.4661 0.621785,1.31783 0.774733,2.04488 0.224946,1.06942 0.26121,3.54489 0.255806,17.46309 -0.0049,12.48239 -0.05699,16.47872 -0.226337,17.35333 -0.137487,0.70994 -0.435257,1.47166 -0.793591,2.03007 -0.339512,0.5291 -0.928554,1.12802 -1.443577,1.46782 -0.478525,0.31572 -1.216871,0.65274 -1.640778,0.74894 -0.507564,0.11522 -9.455116,0.16943 -26.204955,0.15886 -15.525,-0.01 -25.740319,-0.0801 -26.219809,-0.1805 z"
       id="path259" /><path
       style="fill:#181722;fill-opacity:1;stroke-width:0.525877"
       d="m 221.48216,262.58318 c -0.35906,-0.0752 -0.93716,-0.35868 -1.32182,-0.64827 -0.37601,-0.28307 -0.87682,-0.80198 -1.11291,-1.15313 -0.23852,-0.35478 -0.50127,-0.9971 -0.59134,-1.44558 -0.11775,-0.58633 -0.16149,-5.13001 -0.15991,-16.61086 0.002,-12.48962 0.0402,-15.96519 0.18339,-16.57351 0.0997,-0.42335 0.38498,-1.08078 0.63402,-1.46094 0.24903,-0.38018 0.76477,-0.89748 1.14608,-1.14956 0.39446,-0.26078 1.01647,-0.51808 1.44309,-0.59695 0.45767,-0.0846 3.72067,-0.12287 8.3754,-0.0982 7.55773,0.04 7.63219,0.0432 8.36297,0.35413 0.40553,0.17256 1.06296,0.56036 1.46095,0.86179 0.39798,0.30143 1.09928,1.001 1.55844,1.5546 0.45915,0.55359 0.97286,1.15193 1.14156,1.32963 l 0.30674,0.3231 h 10.15656 c 7.01024,0 10.38313,0.0486 10.88792,0.15685 0.40224,0.0863 1.06129,0.37591 1.46455,0.64366 0.40844,0.27118 0.91766,0.77427 1.14964,1.13578 0.24298,0.37865 0.50512,1.07057 0.62937,1.6612 0.18274,0.86877 0.2122,2.87977 0.20781,14.18651 -0.004,10.14033 -0.0463,13.38683 -0.18387,14.09734 -0.11169,0.57673 -0.35359,1.19553 -0.64469,1.64917 -0.27581,0.42982 -0.75433,0.91637 -1.17272,1.19241 -0.38874,0.25648 -0.98855,0.53027 -1.33292,0.60842 -0.41233,0.0936 -7.68106,0.13764 -21.28814,0.12905 -12.61202,-0.008 -20.91065,-0.0651 -21.30017,-0.14663 z"
       id="path259-0" /><path
       style="fill:#393f4a;fill-opacity:1;stroke-width:0.525877"
       d="m 188.69983,211.60137 c -0.35906,-0.0752 -0.93716,-0.35868 -1.32182,-0.64827 -0.37601,-0.28307 -0.87682,-0.80198 -1.11291,-1.15313 -0.23851,-0.35478 -0.50127,-0.9971 -0.59133,-1.44558 -0.11775,-0.58633 -0.16149,-5.13001 -0.15992,-16.61086 0.002,-12.48962 0.0402,-15.96519 0.1834,-16.57351 0.0997,-0.42335 0.38498,-1.08078 0.63401,-1.46094 0.24903,-0.38018 0.76477,-0.89748 1.14608,-1.14956 0.39446,-0.26078 1.01648,-0.51808 1.44309,-0.59695 0.45767,-0.0846 3.72068,-0.12287 8.37541,-0.0982 7.55772,0.04 7.63218,0.0432 8.36296,0.35413 0.40553,0.17256 1.06296,0.56036 1.46095,0.86179 0.39798,0.30143 1.09928,1.001 1.55844,1.5546 0.45915,0.55359 0.97286,1.15193 1.14156,1.32963 l 0.30674,0.3231 h 10.15656 c 7.01024,0 10.38313,0.0486 10.88792,0.15685 0.40224,0.0863 1.06129,0.37591 1.46455,0.64366 0.40844,0.27118 0.91766,0.77427 1.14964,1.13578 0.24298,0.37865 0.50512,1.07057 0.62937,1.6612 0.18274,0.86877 0.2122,2.87977 0.20781,14.18651 -0.004,10.14033 -0.0463,13.38683 -0.18387,14.09734 -0.11169,0.57673 -0.35359,1.19553 -0.64469,1.64917 -0.27581,0.42982 -0.75433,0.91637 -1.17272,1.19241 -0.38874,0.25648 -0.98855,0.53027 -1.33292,0.60842 -0.41233,0.0936 -7.68106,0.13764 -21.28814,0.12905 -12.61202,-0.008 -20.91065,-0.0651 -21.30017,-0.14663 z"
       id="path259-0-3" /><path
       style="fill:#dcd2cc;fill-opacity:1;stroke-width:0.647336"
       d="m 79.242679,283.66019 c -0.44199,-0.0926 -1.153599,-0.44152 -1.627102,-0.798 -0.462867,-0.34845 -1.079335,-0.98721 -1.369953,-1.41946 -0.29361,-0.43672 -0.617046,-1.2274 -0.727919,-1.77946 -0.144946,-0.72175 -0.198789,-6.31486 -0.196844,-20.44739 0.0025,-15.37428 0.04949,-19.65258 0.225747,-20.40141 0.122727,-0.52112 0.473897,-1.3304 0.780444,-1.79836 0.30656,-0.46799 0.941417,-1.10477 1.410784,-1.41507 0.485567,-0.32101 1.251252,-0.63774 1.776394,-0.73482 0.563388,-0.10414 4.580026,-0.15125 10.309836,-0.12088 9.303284,0.0492 9.394944,0.0532 10.294514,0.43592 0.4992,0.21241 1.30846,0.68978 1.79838,1.06083 0.48991,0.37105 1.35317,1.2322 1.91838,1.91366 0.56521,0.68145 1.19756,1.41798 1.40523,1.63673 l 0.37758,0.39772 h 12.50238 c 8.62936,0 12.78127,0.0598 13.40265,0.19308 0.49515,0.10623 1.30641,0.46273 1.80281,0.79232 0.50278,0.33381 1.12961,0.9531 1.41517,1.39811 0.2991,0.4661 0.6218,1.31783 0.77473,2.04488 0.22496,1.06942 0.26122,3.54489 0.25582,17.46309 -0.005,12.48239 -0.057,16.47872 -0.22635,17.35333 -0.13747,0.70994 -0.43524,1.47166 -0.79359,2.03007 -0.33951,0.5291 -0.92855,1.12802 -1.44358,1.46782 -0.47851,0.31572 -1.21687,0.65274 -1.64076,0.74894 -0.50758,0.11522 -9.45513,0.16943 -26.20499,0.15886 -15.524953,-0.01 -25.740263,-0.0801 -26.219761,-0.1805 z"
       id="path259-5" /><path
       style="fill:#8a7875;fill-opacity:1;stroke-width:0.647336"
       d="m 142.95103,283.66019 c -0.44199,-0.0926 -1.15361,-0.44152 -1.62711,-0.798 -0.46286,-0.34845 -1.07934,-0.98721 -1.36996,-1.41946 -0.29361,-0.43672 -0.61704,-1.2274 -0.72792,-1.77946 -0.14494,-0.72175 -0.19878,-6.31486 -0.19684,-20.44739 0.002,-15.37428 0.0495,-19.65258 0.22575,-20.40141 0.12272,-0.52112 0.47389,-1.3304 0.78045,-1.79836 0.30655,-0.46799 0.94141,-1.10477 1.41079,-1.41507 0.48556,-0.32101 1.25125,-0.63774 1.77639,-0.73482 0.56338,-0.10414 4.58002,-0.15125 10.30982,-0.12088 9.30329,0.0492 9.39495,0.0532 10.29452,0.43592 0.49919,0.21241 1.30846,0.68978 1.79837,1.06083 0.4899,0.37105 1.35318,1.2322 1.91839,1.91366 0.5652,0.68145 1.19756,1.41798 1.40523,1.63673 l 0.37759,0.39772 h 12.50237 c 8.62936,0 12.78127,0.0598 13.40265,0.19308 0.49514,0.10623 1.30641,0.46273 1.80281,0.79232 0.50277,0.33381 1.1296,0.9531 1.41516,1.39811 0.2991,0.4661 0.62179,1.31783 0.77473,2.04488 0.22495,1.06942 0.26122,3.54489 0.25581,17.46309 -0.005,12.48239 -0.057,16.47872 -0.22634,17.35333 -0.13748,0.70994 -0.43525,1.47166 -0.79359,2.03007 -0.33951,0.5291 -0.92855,1.12802 -1.44357,1.46782 -0.47853,0.31572 -1.21687,0.65274 -1.64078,0.74894 -0.50757,0.11522 -9.45512,0.16943 -26.20496,0.15886 -15.52495,-0.01 -25.74027,-0.0801 -26.21976,-0.1805 z"
       id="path259-0-5" /></g></svg>
