<?xml version="1.0" encoding="UTF-8" standalone="no"?>
<svg data-name="Layer 1" width="850.53801" height="740.82953" viewBox="0 0 850.53801 740.82953" version="1.1" id="svg70" sodipodi:docname="undraw_developer_activity_re_39tg(1).svg" inkscape:version="1.3 (0e150ed6c4, 2023-07-21)" xmlns:inkscape="http://www.inkscape.org/namespaces/inkscape" xmlns:sodipodi="http://sodipodi.sourceforge.net/DTD/sodipodi-0.dtd" xmlns:xlink="http://www.w3.org/1999/xlink" xmlns="http://www.w3.org/2000/svg" xmlns:svg="http://www.w3.org/2000/svg">
  <defs id="defs70">
    <linearGradient id="linearGradient72" inkscape:collect="always">
      <stop style="stop-color:#2f2e41;stop-opacity:1;" offset="0" id="stop72"/>
      <stop style="stop-color:#2f2e41;stop-opacity:0;" offset="1" id="stop73"/>
    </linearGradient>
    <linearGradient inkscape:collect="always" xlink:href="#linearGradient72" id="linearGradient73" x1="260.78989" y1="196.96074" x2="299.37161" y2="249.87421" gradientUnits="userSpaceOnUse"/>
  </defs>
  <sodipodi:namedview id="namedview70" pagecolor="#ffffff" bordercolor="#000000" borderopacity="0.25" inkscape:showpageshadow="2" inkscape:pageopacity="0.0" inkscape:pagecheckerboard="0" inkscape:deskcolor="#d1d1d1" inkscape:zoom="1.2840631" inkscape:cx="788.90205" inkscape:cy="501.92238" inkscape:window-width="1865" inkscape:window-height="1012" inkscape:window-x="55" inkscape:window-y="31" inkscape:window-maximized="1" inkscape:current-layer="svg70"/>
  <path d="M594.309,820.3248q-3.97494.09-7.98.09c-63.43,0-143.21-33.87994-215.61-80.78q-8.985-5.82-17.81-11.91l5.16-31.4,156.21-20.74,78.4,59.95Z" transform="translate(-174.73099 -79.58524)" fill="#2f2e41" id="path2"/>
  <rect style="fill:#333333;fill-opacity:0.806251;stroke-width:0.961848" id="rect72" width="453.02963" height="187.30843" x="394.2959" y="171.81566" ry="10.039471"/>
  <path d="m 426.17845,177.87487 h -21.63601 a 2.5280893,2.5280893 0 0 0 -2.52697,2.52697 v 21.64573 a 2.5199637,2.5199637 0 0 0 2.52697,2.51749 h 21.63601 a 2.5263204,2.5263204 0 0 0 2.52721,-2.51749 v -21.64573 a 2.5345141,2.5345141 0 0 0 -2.52721,-2.52697 z" fill="#ffffff" id="path3" style="stroke-width:0.971968;fill:#3f3d56;fill-opacity:1"/>
  <path d="m 426.17845,214.76102 h -21.63601 a 2.5281379,2.5281379 0 0 0 -2.52697,2.52711 v 21.64574 a 2.5198568,2.5198568 0 0 0 2.52697,2.51739 h 21.63601 a 2.5262134,2.5262134 0 0 0 2.52721,-2.51739 v -21.64574 a 2.5345335,2.5345335 0 0 0 -2.52721,-2.52711 z" fill="#e6e6e6" id="path4" style="fill:#ffccaa;stroke-width:0.971968"/>
  <path d="m 426.17845,251.64716 h -21.63601 a 2.5282449,2.5282449 0 0 0 -2.52697,2.52722 v 21.63601 a 2.5219076,2.5219076 0 0 0 2.52697,2.52697 h 21.63601 a 2.5282449,2.5282449 0 0 0 2.52721,-2.52697 v -21.63601 a 2.5346404,2.5346404 0 0 0 -2.52721,-2.52722 z" fill="#e6e6e6" id="path5" style="stroke-width:0.971968"/>
  <path d="m 428.66675,290.61346 a 2.5437769,2.5437769 0 0 0 -2.4883,-2.08015 h -21.63601 a 2.5283226,2.5283226 0 0 0 -2.52697,2.52721 v 21.63601 a 2.5220048,2.5220048 0 0 0 2.52697,2.52712 h 21.63601 a 2.5283421,2.5283421 0 0 0 2.52721,-2.52712 v -21.63601 a 2.2478806,2.2478806 0 0 0 -0.0389,-0.44706 z" fill="#e6e6e6" id="path6" style="stroke-width:0.971968"/>
  <path d="m 427.1602,325.61404 a 2.5601643,2.5601643 0 0 0 -0.98169,-0.19447 H 404.5425 a 2.5220145,2.5220145 0 0 0 -2.52698,2.52712 v 21.63601 a 2.5158037,2.5158037 0 0 0 2.52698,2.52721 h 21.63601 a 2.528449,2.528449 0 0 0 2.52721,-2.52721 v -21.63601 a 2.5424259,2.5424259 0 0 0 -1.54552,-2.33265 z" fill="#e6e6e6" id="path7" style="stroke-width:0.971968"/>
  <path d="m 471.62774,177.87487 h -21.63601 a 2.5280893,2.5280893 0 0 0 -2.52697,2.52697 v 21.64573 a 2.5199637,2.5199637 0 0 0 2.52697,2.51749 h 21.63601 a 2.5263204,2.5263204 0 0 0 2.52722,-2.51749 v -21.64573 a 2.5345141,2.5345141 0 0 0 -2.52722,-2.52697 z" fill="#e6e6e6" id="path8" style="fill:#ffccaa;stroke-width:0.971968"/>
  <path d="m 471.62774,214.76102 h -21.63601 a 2.5281379,2.5281379 0 0 0 -2.52697,2.52711 v 21.64574 a 2.5198568,2.5198568 0 0 0 2.52697,2.51739 h 21.63601 a 2.5262134,2.5262134 0 0 0 2.52722,-2.51739 v -21.64574 a 2.5345335,2.5345335 0 0 0 -2.52722,-2.52711 z" fill="#ff8f00" id="path9" style="stroke-width:0.971968"/>
  <path d="m 471.62774,251.64716 h -21.63601 a 2.5282449,2.5282449 0 0 0 -2.52697,2.52722 v 21.63601 a 2.5219076,2.5219076 0 0 0 2.52697,2.52697 h 21.63601 a 2.5282449,2.5282449 0 0 0 2.52722,-2.52697 v -21.63601 a 2.5346404,2.5346404 0 0 0 -2.52722,-2.52722 z" fill="#ff8f00" id="path10" style="stroke-width:0.971968"/>
  <path d="m 471.62774,288.53331 h -21.63601 a 2.5199345,2.5199345 0 0 0 -2.39104,1.7301 2.4089844,2.4089844 0 0 0 -0.13597,0.79708 v 21.63602 a 2.5220048,2.5220048 0 0 0 2.52697,2.52711 h 21.63601 a 2.5283421,2.5283421 0 0 0 2.52722,-2.52711 v -21.63602 a 2.5347182,2.5347182 0 0 0 -2.52718,-2.52718 z" fill="#ff8f00" id="path11" style="stroke-width:0.971968"/>
  <path d="m 471.62774,325.41957 h -21.63601 a 2.5220145,2.5220145 0 0 0 -2.52697,2.52712 v 21.63601 a 2.5221117,2.5221117 0 0 0 2.52697,2.52721 h 21.63601 a 2.528449,2.528449 0 0 0 2.52722,-2.52721 v -21.63601 a 2.5283518,2.5283518 0 0 0 -2.52722,-2.52712 z" fill="#e6e6e6" id="path12" style="stroke-width:0.971968"/>
  <path d="m 517.07698,177.87487 h -21.63602 a 2.5280893,2.5280893 0 0 0 -2.52697,2.52697 v 21.64573 a 2.5199637,2.5199637 0 0 0 2.52697,2.51749 h 21.63602 a 2.5263204,2.5263204 0 0 0 2.52721,-2.51749 v -21.64573 a 2.5345141,2.5345141 0 0 0 -2.52721,-2.52697 z" fill="#ff8f00" id="path13" style="stroke-width:0.971968"/>
  <path d="m 517.07698,214.76102 h -21.63602 a 2.5281379,2.5281379 0 0 0 -2.52697,2.52711 v 21.64574 a 2.5198568,2.5198568 0 0 0 2.52697,2.51739 h 21.63602 a 2.5262134,2.5262134 0 0 0 2.52721,-2.51739 v -21.64574 a 2.5345335,2.5345335 0 0 0 -2.52721,-2.52711 z" fill="#ff8f00" id="path14" style="stroke-width:0.971968"/>
  <path d="m 517.07698,251.64716 h -21.63602 a 2.5282449,2.5282449 0 0 0 -2.52697,2.52722 v 21.63601 a 2.5219076,2.5219076 0 0 0 2.52697,2.52697 h 21.63602 a 2.5282449,2.5282449 0 0 0 2.52721,-2.52697 v -21.63601 a 2.5346404,2.5346404 0 0 0 -2.52721,-2.52722 z" fill="#e6e6e6" id="path15" style="fill:#ffccaa;stroke-width:0.971968"/>
  <path d="m 517.07698,288.53331 h -21.63602 a 2.5283226,2.5283226 0 0 0 -2.52697,2.52721 v 21.63601 a 2.5220048,2.5220048 0 0 0 2.52697,2.52712 h 21.63602 a 2.5283421,2.5283421 0 0 0 2.52721,-2.52712 v -21.63601 a 2.5347182,2.5347182 0 0 0 -2.52721,-2.52721 z" fill="#ff8f00" id="path16" style="stroke-width:0.971968"/>
  <path d="m 517.07698,325.41957 h -21.63602 a 2.5220145,2.5220145 0 0 0 -2.52697,2.52712 v 21.63601 a 2.5221117,2.5221117 0 0 0 2.52697,2.52721 h 21.63602 a 2.528449,2.528449 0 0 0 2.52721,-2.52721 v -21.63601 a 2.5283518,2.5283518 0 0 0 -2.52721,-2.52712 z" fill="#ff8f00" id="path17" style="stroke-width:0.971968"/>
  <path d="M 562.52621,177.87487 H 540.8902 a 2.5282157,2.5282157 0 0 0 -2.52712,2.52697 v 21.64573 a 2.5200706,2.5200706 0 0 0 2.52712,2.51749 h 21.63601 a 2.5263204,2.5263204 0 0 0 2.52722,-2.51749 v -21.64573 a 2.5345141,2.5345141 0 0 0 -2.52722,-2.52697 z" fill="#ff8f00" id="path18" style="stroke-width:0.971968"/>
  <path d="M 562.52621,214.76102 H 540.8902 a 2.5282449,2.5282449 0 0 0 -2.52712,2.52711 v 21.64574 a 2.5199637,2.5199637 0 0 0 2.52712,2.51739 h 21.63601 a 2.5262134,2.5262134 0 0 0 2.52722,-2.51739 v -21.64574 a 2.5345335,2.5345335 0 0 0 -2.52722,-2.52711 z" fill="#ffffff" id="path19" style="stroke-width:0.971968;fill:#3f3d56;fill-opacity:1"/>
  <path d="M 562.52621,251.64716 H 540.8902 a 2.5283421,2.5283421 0 0 0 -2.52712,2.52722 v 21.63601 a 2.5220048,2.5220048 0 0 0 2.52712,2.52697 h 21.63601 a 2.5282449,2.5282449 0 0 0 2.52722,-2.52697 v -21.63601 a 2.5346404,2.5346404 0 0 0 -2.52722,-2.52722 z" fill="#ffffff" id="path20" style="stroke-width:0.971968;fill:#3f3d56;fill-opacity:1"/>
  <path d="M 562.52621,288.53331 H 540.8902 a 2.5284198,2.5284198 0 0 0 -2.52712,2.52721 v 21.63601 a 2.5221117,2.5221117 0 0 0 2.52712,2.52712 h 21.63601 a 2.5283421,2.5283421 0 0 0 2.52722,-2.52712 v -21.63601 a 2.5347182,2.5347182 0 0 0 -2.52722,-2.52721 z" fill="#e6e6e6" id="path21" style="fill:#ffccaa;stroke-width:0.971968"/>
  <path d="M 562.52621,325.41957 H 540.8902 a 2.5221117,2.5221117 0 0 0 -2.52712,2.52712 v 21.63601 a 2.5222575,2.5222575 0 0 0 2.52712,2.52721 h 21.63601 a 2.528449,2.528449 0 0 0 2.52722,-2.52721 v -21.63601 a 2.5283518,2.5283518 0 0 0 -2.52722,-2.52712 z" fill="#ff8f00" id="path22" style="stroke-width:0.971968"/>
  <path d="m 607.97545,177.87487 h -21.64574 a 2.5261454,2.5261454 0 0 0 -2.5174,2.52697 v 21.64573 a 2.5179712,2.5179712 0 0 0 2.5174,2.51749 h 21.64574 a 2.5263204,2.5263204 0 0 0 2.52721,-2.51749 v -21.64573 a 2.5345141,2.5345141 0 0 0 -2.52721,-2.52697 z" fill="#ffffff" id="path23" style="stroke-width:0.971968;fill:#3f3d56;fill-opacity:1"/>
  <path d="m 607.97545,214.76102 h -21.64574 a 2.5261454,2.5261454 0 0 0 -2.5174,2.52711 v 21.64574 a 2.5178642,2.5178642 0 0 0 2.5174,2.51739 h 21.64574 a 2.5262134,2.5262134 0 0 0 2.52721,-2.51739 v -21.64574 a 2.5345335,2.5345335 0 0 0 -2.52721,-2.52711 z" fill="#ffffff" id="path24" style="stroke-width:0.971968;fill:#3f3d56;fill-opacity:1"/>
  <path d="m 607.97545,251.64716 h -21.64574 a 2.5262912,2.5262912 0 0 0 -2.5174,2.52722 v 21.63601 a 2.5199345,2.5199345 0 0 0 2.5174,2.52697 h 21.64574 a 2.5282449,2.5282449 0 0 0 2.52721,-2.52697 v -21.63601 a 2.5346404,2.5346404 0 0 0 -2.52721,-2.52722 z" fill="#ffffff" id="path25" style="stroke-width:0.971968;fill:#3f3d56;fill-opacity:1"/>
  <path d="m 607.97545,288.53331 h -21.64574 a 2.526369,2.526369 0 0 0 -2.5174,2.52721 v 21.63601 a 2.5200317,2.5200317 0 0 0 2.5174,2.52712 h 21.64574 a 2.5283421,2.5283421 0 0 0 2.52721,-2.52712 v -21.63601 a 2.5347182,2.5347182 0 0 0 -2.52721,-2.52721 z" fill="#ff8f00" id="path26" style="stroke-width:0.971968"/>
  <path d="m 607.97545,325.41957 h -21.64574 a 2.5200415,2.5200415 0 0 0 -2.5174,2.52712 v 21.63601 a 2.5201386,2.5201386 0 0 0 2.5174,2.52721 h 21.64574 a 2.528449,2.528449 0 0 0 2.52721,-2.52721 v -21.63601 a 2.5283518,2.5283518 0 0 0 -2.52721,-2.52712 z" fill="#e6e6e6" id="path27" style="fill:#ffccaa;stroke-width:0.971968"/>
  <path d="m 653.42468,177.87487 h -21.64573 a 2.5261454,2.5261454 0 0 0 -2.5174,2.52697 v 21.64573 a 2.5179712,2.5179712 0 0 0 2.5174,2.51749 h 21.64573 a 2.5264078,2.5264078 0 0 0 2.52721,-2.51749 v -21.64573 a 2.5345918,2.5345918 0 0 0 -2.52721,-2.52697 z" fill="#ffffff" id="path28" style="stroke-width:0.971968;fill:#3f3d56;fill-opacity:1"/>
  <path d="m 653.42468,214.76102 h -21.64573 a 2.5261454,2.5261454 0 0 0 -2.5174,2.52711 v 21.64574 a 2.5178642,2.5178642 0 0 0 2.5174,2.51739 h 21.64573 a 2.5263009,2.5263009 0 0 0 2.52721,-2.51739 v -21.64574 a 2.534621,2.534621 0 0 0 -2.52721,-2.52711 z" fill="#ffffff" id="path29" style="stroke-width:0.971968;fill:#3f3d56;fill-opacity:1"/>
  <path d="m 653.42468,251.64716 h -21.64573 a 2.5262912,2.5262912 0 0 0 -2.5174,2.52722 v 21.63601 a 2.5199345,2.5199345 0 0 0 2.5174,2.52697 h 21.64573 a 2.5283226,2.5283226 0 0 0 2.52721,-2.52697 v -21.63601 a 2.5347182,2.5347182 0 0 0 -2.52721,-2.52722 z" fill="#ff8f00" id="path30" style="stroke-width:0.971968"/>
  <path d="m 653.42468,288.53331 h -21.64573 a 2.526369,2.526369 0 0 0 -2.5174,2.52721 v 21.63601 a 2.5200317,2.5200317 0 0 0 2.5174,2.52712 h 21.64573 a 2.5284198,2.5284198 0 0 0 2.52721,-2.52712 v -21.63601 a 2.5348056,2.5348056 0 0 0 -2.52721,-2.52721 z" fill="#e6e6e6" id="path31" style="fill:#ffccaa;stroke-width:0.971968"/>
  <path d="m 653.42468,325.41957 h -21.64573 a 2.5200415,2.5200415 0 0 0 -2.5174,2.52712 v 21.63601 a 2.5201386,2.5201386 0 0 0 2.5174,2.52721 h 21.64573 a 2.5285365,2.5285365 0 0 0 2.52721,-2.52721 v -21.63601 a 2.5284295,2.5284295 0 0 0 -2.52721,-2.52712 z" fill="#ffffff" id="path32" style="stroke-width:0.971968;fill:#3f3d56;fill-opacity:1"/>
  <path d="m 698.87391,177.87487 h -21.64573 a 2.5261454,2.5261454 0 0 0 -2.5174,2.52697 v 21.64573 a 2.5179712,2.5179712 0 0 0 2.5174,2.51749 h 21.64573 a 2.5264078,2.5264078 0 0 0 2.52722,-2.51749 v -21.64573 a 2.5345918,2.5345918 0 0 0 -2.52722,-2.52697 z" fill="#ff8f00" id="path33" style="stroke-width:0.971968"/>
  <path d="m 698.87391,214.76102 h -21.64573 a 2.5261454,2.5261454 0 0 0 -2.5174,2.52711 v 21.64574 a 2.5178642,2.5178642 0 0 0 2.5174,2.51739 h 21.64573 a 2.5263009,2.5263009 0 0 0 2.52722,-2.51739 v -21.64574 a 2.534621,2.534621 0 0 0 -2.52722,-2.52711 z" fill="#ff8f00" id="path34" style="stroke-width:0.971968"/>
  <path d="m 698.87391,251.64716 h -21.64573 a 2.5262912,2.5262912 0 0 0 -2.5174,2.52722 v 21.63601 a 2.5199345,2.5199345 0 0 0 2.5174,2.52697 h 21.64573 a 2.5283226,2.5283226 0 0 0 2.52722,-2.52697 v -21.63601 a 2.5347182,2.5347182 0 0 0 -2.52722,-2.52722 z" fill="#e6e6e6" id="path35" style="fill:#ffccaa;stroke-width:0.971968"/>
  <path d="m 698.87391,288.53331 h -21.64573 a 2.526369,2.526369 0 0 0 -2.5174,2.52721 v 21.63601 a 2.5200317,2.5200317 0 0 0 2.5174,2.52712 h 21.64573 a 2.5284198,2.5284198 0 0 0 2.52722,-2.52712 v -21.63601 a 2.5348056,2.5348056 0 0 0 -2.52722,-2.52721 z" fill="#ffffff" id="path36" style="stroke-width:0.971968;fill:#3f3d56;fill-opacity:1"/>
  <path d="m 698.87391,325.41957 h -21.64573 a 2.5200415,2.5200415 0 0 0 -2.5174,2.52712 v 21.63601 a 2.5201386,2.5201386 0 0 0 2.5174,2.52721 h 21.64573 a 2.5285365,2.5285365 0 0 0 2.52722,-2.52721 v -21.63601 a 2.5284295,2.5284295 0 0 0 -2.52722,-2.52712 z" fill="#ff8f00" id="path37" style="stroke-width:0.971968"/>
  <path d="m 744.32315,177.87487 h -21.64573 a 2.5261454,2.5261454 0 0 0 -2.5174,2.52697 v 21.64573 a 2.5179712,2.5179712 0 0 0 2.5174,2.51749 h 21.64573 a 2.5263009,2.5263009 0 0 0 2.52711,-2.51749 v -21.64573 a 2.5344946,2.5344946 0 0 0 -2.52711,-2.52697 z" fill="#ff8f00" id="path38" style="stroke-width:0.971968"/>
  <path d="m 744.32315,214.76102 h -21.64573 a 2.5261454,2.5261454 0 0 0 -2.5174,2.52711 v 21.64574 a 2.5178642,2.5178642 0 0 0 2.5174,2.51739 h 21.64573 a 2.5262037,2.5262037 0 0 0 2.52711,-2.51739 v -21.64574 a 2.5345141,2.5345141 0 0 0 -2.52711,-2.52711 z" fill="#ff8f00" id="path39" style="stroke-width:0.971968"/>
  <path d="m 744.32315,251.64716 h -21.64573 a 2.5262912,2.5262912 0 0 0 -2.5174,2.52722 v 21.63601 a 2.5199345,2.5199345 0 0 0 2.5174,2.52697 h 21.64573 a 2.5282254,2.5282254 0 0 0 2.52711,-2.52697 v -21.63601 a 2.534621,2.534621 0 0 0 -2.52711,-2.52722 z" fill="#e6e6e6" id="path40" style="fill:#ffccaa;stroke-width:0.971968"/>
  <path d="m 744.32315,288.53331 h -21.64573 a 2.526369,2.526369 0 0 0 -2.5174,2.52721 v 21.63601 a 2.5200317,2.5200317 0 0 0 2.5174,2.52712 h 21.64573 a 2.5283226,2.5283226 0 0 0 2.52711,-2.52712 v -21.63601 a 2.5346987,2.5346987 0 0 0 -2.52711,-2.52721 z" fill="#ff8f00" id="path41" style="stroke-width:0.971968"/>
  <path d="m 744.32315,325.41957 h -21.64573 a 2.5200415,2.5200415 0 0 0 -2.5174,2.52712 v 21.63601 a 2.5201386,2.5201386 0 0 0 2.5174,2.52721 h 21.64573 a 2.5284295,2.5284295 0 0 0 2.52711,-2.52721 v -21.63601 a 2.5283323,2.5283323 0 0 0 -2.52711,-2.52712 z" fill="#ff8f00" id="path42" style="stroke-width:0.971968"/>
  <path d="m 789.77238,177.87487 h -21.64573 a 2.5261454,2.5261454 0 0 0 -2.5174,2.52697 v 21.64573 a 2.5179712,2.5179712 0 0 0 2.5174,2.51749 h 21.64573 a 2.5263009,2.5263009 0 0 0 2.52712,-2.51749 v -21.64573 a 2.5344946,2.5344946 0 0 0 -2.52712,-2.52697 z" fill="#e6e6e6" id="path43" style="fill:#ffccaa;stroke-width:0.971968"/>
  <path d="m 789.77238,214.76102 h -21.64573 a 2.5261454,2.5261454 0 0 0 -2.5174,2.52711 v 21.64574 a 2.5178642,2.5178642 0 0 0 2.5174,2.51739 h 21.64573 a 2.5262037,2.5262037 0 0 0 2.52712,-2.51739 v -21.64574 a 2.5345141,2.5345141 0 0 0 -2.52712,-2.52711 z" fill="#ff8f00" id="path44" style="stroke-width:0.971968"/>
  <path d="m 789.77238,251.64716 h -21.64573 a 2.5262912,2.5262912 0 0 0 -2.5174,2.52722 v 21.63601 a 2.5199345,2.5199345 0 0 0 2.5174,2.52697 h 21.64573 a 2.5282254,2.5282254 0 0 0 2.52712,-2.52697 v -21.63601 a 2.534621,2.534621 0 0 0 -2.52712,-2.52722 z" fill="#ff8f00" id="path45" style="stroke-width:0.971968"/>
  <path d="m 789.77238,288.53331 h -21.64573 a 2.526369,2.526369 0 0 0 -2.5174,2.52721 v 21.63601 a 2.5200317,2.5200317 0 0 0 2.5174,2.52712 h 21.64573 a 2.5283226,2.5283226 0 0 0 2.52712,-2.52712 v -21.63601 a 2.5346987,2.5346987 0 0 0 -2.52712,-2.52721 z" fill="#ff8f00" id="path46" style="stroke-width:0.971968"/>
  <path d="m 789.77238,325.41957 h -21.64573 a 2.5200415,2.5200415 0 0 0 -2.5174,2.52712 v 21.63601 a 2.5201386,2.5201386 0 0 0 2.5174,2.52721 h 21.64573 a 2.5284295,2.5284295 0 0 0 2.52712,-2.52721 v -21.63601 a 2.5283323,2.5283323 0 0 0 -2.52712,-2.52712 z" fill="#e6e6e6" id="path47" style="fill:#ffccaa;stroke-width:0.971968"/>
  <path d="m 835.22162,177.87487 h -21.64574 a 2.5262718,2.5262718 0 0 0 -2.51748,2.52697 v 21.64573 a 2.5180781,2.5180781 0 0 0 2.51748,2.51749 h 21.64574 a 2.5263009,2.5263009 0 0 0 2.52711,-2.51749 v -21.64573 a 2.5344946,2.5344946 0 0 0 -2.52711,-2.52697 z" fill="#e6e6e6" id="path48" style="fill:#ffccaa;stroke-width:0.971968"/>
  <path d="m 835.22162,214.76102 h -21.64574 a 2.5263009,2.5263009 0 0 0 -2.51748,2.52711 v 21.64574 a 2.5179712,2.5179712 0 0 0 2.51748,2.51739 h 21.64574 a 2.5262037,2.5262037 0 0 0 2.52711,-2.51739 v -21.64574 a 2.5345141,2.5345141 0 0 0 -2.52711,-2.52711 z" fill="#e6e6e6" id="path49" style="fill:#ffccaa;stroke-width:0.971968"/>
  <path d="m 835.22162,251.64716 h -21.64574 a 2.5263981,2.5263981 0 0 0 -2.51748,2.52722 v 21.63601 a 2.5200415,2.5200415 0 0 0 2.51748,2.52697 h 21.64574 a 2.5282254,2.5282254 0 0 0 2.52711,-2.52697 v -21.63601 a 2.534621,2.534621 0 0 0 -2.52711,-2.52722 z" fill="#ff8f00" id="path50" style="stroke-width:0.971968"/>
  <path d="m 835.22162,288.53331 h -21.64574 a 2.5264759,2.5264759 0 0 0 -2.51748,2.52721 v 21.63601 a 2.5201386,2.5201386 0 0 0 2.51748,2.52712 h 21.64574 a 2.5283226,2.5283226 0 0 0 2.52711,-2.52712 v -21.63601 a 2.5346987,2.5346987 0 0 0 -2.52711,-2.52721 z" fill="#e6e6e6" id="path51" style="fill:#ffccaa;stroke-width:0.971968"/>
  <path d="m 835.22162,325.41957 h -21.64574 a 2.5201484,2.5201484 0 0 0 -2.51748,2.52712 v 21.63601 a 2.5202456,2.5202456 0 0 0 2.51748,2.52721 h 21.64574 a 2.5284295,2.5284295 0 0 0 2.52711,-2.52721 v -21.63601 a 2.5283323,2.5283323 0 0 0 -2.52711,-2.52712 z" fill="#e6e6e6" id="path52" style="fill:#ffccaa;stroke-width:0.971968"/>
  <polygon points="336.095 660.051 335.475 660.051 336.005 659.981 336.095 660.051" fill="#2f2e41" id="polygon52"/>
  <circle id="b6132315-04e2-4cdb-a713-107c9cd58b0b" data-name="ab6171fa-7d69-4734-b81c-8dff60f9761b" cx="282.81438" cy="176.73277" r="68.32185" fill="#ffb6b6" style="fill:#ffccaa;fill-opacity:1"/>
  <path id="f4304bdd-ba2d-4fff-b404-410205410c5d-267" data-name="bf427902-b9bf-4946-b5d7-5c1c7e04535e" d="M517.37694,206.2256s17.8694-34.16091-21.44383-37.26649c0,0-33.51489-30.40228-67.6758-5.558,0,0-18.63322,0-28.82254,21.08567,0,0-14.655-5.558-17.87551,9.31661,0,0-10.72349,31.05546,0,59.00533,10.72348,27.94992,14.28537,31.05537,14.28537,31.05537s-17.6209-58.59838,25.26991-61.704,90.8867-29.90942,94.46114,4.25144,8.95329,42.57784,8.95329,42.57784S558.47855,220.2006,517.37694,206.2256Z" transform="translate(-174.73099 -79.58524)" fill="#2f2e41"/>
  <path d="M634.279,424.69479l-.2201,1.16-2.47,13.04-17.06994,90.2-1.01,5.31006-2.12,11.23-2.8999,15.31994-6.43018,33.95008-1.83984,9.73-.69006,3.6499-.24,1.28-1.91,10.07007-.58,3.03991-4.66,34.53-4.07007,30.09,13.62012,13.62-8.12012,8.12-5.32983,30.53.00989.07007H370.71908q-13.20008-8.55012-26.02-17.63013l1.79-13.3999s6.15991-23.93006,3.56982-26.79c-2.57983-2.86-8.24-7.97-8.24-7.97l7.13013-16.64.99-2.30993-1.66-34.43006-.03992-.83-.55-11.3501-.07007-1.46-.11-2.18994-2.11-43.68006-.04-.72009-.63989-13.24-.6001-12.58984-.26-5.31006-2.56994-53.13-1.74-36.07995-1.52-31.41,6.11-2.06994,65.3501-22.21009,27.06982-35.19006,56.34009.42,27.58008.21009,46.0199,42.67993,10.47009,5,.08.04,7.50988,3.59,19.04,9.09,20.13013,9.62012,10.32983,4.92993Z" transform="translate(-174.73099 -79.58524)" fill="#cacaca" id="path53" style="fill:#1a1a1a"/>
  <path d="M443.83985,637.13612a30.28588,30.28588,0,0,1-40.66389-22.43L296.61714,599.5882l37.0428-41.902,95.511,20.7803a30.45,30.45,0,0,1,14.66891,58.66964Z" transform="translate(-174.73099 -79.58524)" fill="#ffb6b6" id="path54" style="fill:#ffccaa;fill-opacity:1"/>
  <path d="M396.32894,560.9548a13.52249,13.52249,0,0,0-7.88989-4.87l-43.72-9.09009-4.49-.92993a18.93267,18.93267,0,0,1-12.53009-9.07007,19.16055,19.16055,0,0,1-2.45-7.8999,18.89456,18.89456,0,0,1,.89-7.48l15.15-45.65,9.82995-29.62a41.79215,41.79215,0,0,0,2.09009-11.05,43.34878,43.34878,0,0,0-9.07007-28.88989,42.69326,42.69326,0,0,0-49.01-13.64014c-.25.09009-.51.19006-.76.29a42.58322,42.58322,0,0,0-25.31,28.41l-10.68,38.85-22.03,80.09009a57.7664,57.7664,0,0,0,48.96,72.67993l62.97,7.38,29.14,3.42a13.49651,13.49651,0,0,0,14.84-10.73,4.89544,4.89544,0,0,0,.11-.55005l.7-4.32007,5.93006-36.37988.05993-.37012A13.47483,13.47483,0,0,0,396.32894,560.9548Z" transform="translate(-174.73099 -79.58524)" fill="#cacaca" id="path55" style="fill:#1a1a1a"/>
  <path d="M511.71356,638.30236a30.28592,30.28592,0,0,0,37.09449-27.9402l103.362-29.99367L609.5885,544.10893l-91.62614,34.04148a30.45,30.45,0,0,0-6.2488,60.152Z" transform="translate(-174.73099 -79.58524)" fill="#ffb6b6" id="path56" style="fill:#ffccaa;fill-opacity:1"/>
  <path d="M703.4891,513.27475,654.32894,400.13486a42.819,42.819,0,0,0-20.27-21.3501,43.35617,43.35617,0,0,0-8.7799-3.2c-.4701-.12-.94007-.23-1.41-.32007a42.1319,42.1319,0,0,0-19.48.36011,42.81378,42.81378,0,0,0-27.34,21.73,1.00376,1.00376,0,0,0-.08.13989,43.10025,43.10025,0,0,0-.37012,38.8501l.61011,1.22,34.74,69.77a18.90046,18.90046,0,0,1-10.5,26.18994l-2.44006.88013-43.88,15.84985a13.4969,13.4969,0,0,0-8.33,16.79l.11.3501,12.3,39.35986c.05994.18005.11987.36011.18994.54a7.0543,7.0543,0,0,0,.4.99,13.48177,13.48177,0,0,0,15.80993,7.53l23.68006-6.25,4.82995-1.28,61.15-16.1499a57.76037,57.76037,0,0,0,38.22009-78.86011Z" transform="translate(-174.73099 -79.58524)" fill="#cacaca" id="path57" style="fill:#1a1a1a"/>
  <path d="M219.629,608.28482a514.11633,514.11633,0,0,0,45.75,48.92h451.97a16.44588,16.44588,0,0,1,16.42,16.43l.65,114.53a355.4301,355.4301,0,0,0,77.47-48.53q9.84-8.085,19.07-16.87,6.045-5.73,11.8-11.74a355.62853,355.62853,0,0,0,68.82-102.74Z" transform="translate(-174.73099 -79.58524)" fill="#3f3d56" id="path58"/>
  <path d="M842.759,711.02475q-5.74494,6.015-11.79993,11.74H734.749v-11.74Z" transform="translate(-174.73099 -79.58524)" fill="#fff" id="path59"/>
  <path d="M633.379,335.53476a5.53766,5.53766,0,0,0-4.87-2.8999H300.669a5.55451,5.55451,0,0,0-5.54,5.54992v196.2201H634.05892V338.18478A5.38548,5.38548,0,0,0,633.379,335.53476Z" transform="translate(-174.73099 -79.58524)" fill="#3f3d56" id="path60"/>
  <path d="M294.83213,529.09239V553.3062a7.64384,7.64384,0,0,0,7.64382,7.64392H427.57266v47.78659h-1.66185a.9929.9929,0,0,0-.993.99292v3.32374a.9929.9929,0,0,0,.993.993h77.6584a.99291.99291,0,0,0,.993-.993v-3.32374a.9929.9929,0,0,0-.993-.99292h-1.66185V560.95012H627.00407a7.64384,7.64384,0,0,0,7.64382-7.64392V529.09239Z" transform="translate(-174.73099 -79.58524)" fill="#3f3d56" id="path61"/>
  <circle cx="285.90293" cy="348.70373" r="31.30642" fill="#ff8f00" id="circle61"/>
  <path d="M540.399,252.58481h-5c0-37.8-37.41-62.57-75.15-62.59a82.38227,82.38227,0,0,0-16.35,1.59c-6.06,1.21-12.35,2.66-18.53,4.55-24.37,7.47-46.97,21.91-46.97,56.45a78.591,78.591,0,0,0,2.54,19.88l-4.84,1.26a83.87572,83.87572,0,0,1-2.7-21.14c0-30.18,12.39-50.91,33.79-63.27,11.25-6.5,24.98-10.69,40.71-12.73a97.13079,97.13079,0,0,1,19.75-.6C511.049,179.10477,540.399,212.38479,540.399,252.58481Z" transform="translate(-174.73099 -79.58524)" fill="#ff8f00" id="path62"/>
  <path d="M548.729,255.35477l-1.97-14.56a15.71013,15.71013,0,0,0-5-9.56,15.81566,15.81566,0,0,0-13.25-4l-3.13.43a6.52426,6.52426,0,0,0-4.35,2.53,6.548,6.548,0,0,0-1.29,4.87l4.55,33.54a6.57712,6.57712,0,0,0,5.3,5.57,6.15442,6.15442,0,0,0,1.22.12,6.49883,6.49883,0,0,0,.88-.06l3.5-.47a15.79135,15.79135,0,0,0,10.74-6.43c.27-.38.53-.77.77-1.17005A16.7484,16.7484,0,0,0,548.729,255.35477Z" transform="translate(-174.73099 -79.58524)" fill="#ff8f00" id="path63"/>
  <path d="M523.359,228.27481a6.4317,6.4317,0,0,0-2.33,1.92,6.548,6.548,0,0,0-1.29,4.87l4.55,33.54a6.57712,6.57712,0,0,0,5.3,5.57Z" transform="translate(-174.73099 -79.58524)" fill="#fff" id="path64" style="fill:#333333"/>
  <path d="M548.729,255.35477l-1.97-14.56a15.71013,15.71013,0,0,0-5-9.56l4.53,33.37a6.17592,6.17592,0,0,0,.41,1.56A16.7484,16.7484,0,0,0,548.729,255.35477Z" transform="translate(-174.73099 -79.58524)" fill="#3f3d56" id="path65"/>
  <ellipse cx="532.21834" cy="258.90901" rx="2.5" ry="7" transform="translate(-204.70468 -5.69071) rotate(-7.72549)" fill="#3f3d56" id="ellipse65"/>
  <ellipse cx="529.21834" cy="240.90901" rx="2.5" ry="7" transform="translate(-202.31223 -6.25736) rotate(-7.72549)" fill="#3f3d56" id="ellipse66"/>
  <ellipse cx="548.21834" cy="247.90901" rx="2.5" ry="7" transform="translate(-203.08076 -3.63971) rotate(-7.72549)" fill="#3f3d56" id="ellipse67"/>
  <path d="M460.249,189.99478a82.38227,82.38227,0,0,0-16.35,1.59c-6.06,1.21-12.35,2.66-18.53,4.55-9.65-.47-16.75-2.97-18.18-6.82,11.25-6.5,24.98-10.69,40.71-12.73a97.13079,97.13079,0,0,1,19.75-.6,5.727,5.727,0,0,1,2.72,3.82C470.839,183.28482,466.869,186.98477,460.249,189.99478Z" transform="translate(-174.73099 -79.58524)" fill="#3f3d56" id="path67"/>
  <path d="M396.409,287.28482l-7.7-32.01a6.02367,6.02367,0,0,0-4.88-4.55,6.73326,6.73326,0,0,0-1-.08,6.02576,6.02576,0,0,0-1.4.17l-2.98.72a14.904,14.904,0,0,0-10.99,17.96l3.45,14.36a15.84509,15.84509,0,0,0,5.34,8.62005,14.045,14.045,0,0,0,1.36.97,14.80921,14.80921,0,0,0,11.37,1.84l2.97-.72a5.84014,5.84014,0,0,0,2.17-1.01A5.99327,5.99327,0,0,0,396.409,287.28482Z" transform="translate(-174.73099 -79.58524)" fill="#ff8f00" id="path68"/>
  <ellipse cx="378.62896" cy="274.52323" rx="2.5" ry="7" transform="translate(-228.45065 16.61926) rotate(-13.53051)" fill="#3f3d56" id="ellipse68"/>
  <ellipse cx="368.62896" cy="277.52323" rx="2.5" ry="7" transform="translate(-229.43008 14.36289) rotate(-13.53051)" fill="#3f3d56" id="ellipse69"/>
  <path d="M396.899,287.16476l-7.7-32.01a6.53174,6.53174,0,0,0-5.29-4.92l10.51,43.72A6.5111,6.5111,0,0,0,396.899,287.16476Z" transform="translate(-174.73099 -79.58524)" fill="#fff" id="path69" style="fill:#333333"/>
  <path d="M369.199,263.15481a6.476,6.476,0,0,0-1.17-2.45,14.72545,14.72545,0,0,0-.57,8.79l3.45,14.36a15.84509,15.84509,0,0,0,5.34,8.62005Z" transform="translate(-174.73099 -79.58524)" fill="#3f3d56" id="path70"/>
  <path style="fill:#2f2e41;fill-opacity:1" d="m 253.42672,223.41343 c -1.49717,-5.13972 4.1138,-10.36396 8.22291,-13.7952 4.04784,-3.38008 9.68157,-4.34495 14.81634,-5.54667 7.18842,-1.68234 16.13782,-4.70045 23.5029,-5.20961 5.95203,-0.41147 10.508,1.4919 16.41772,2.31118 3.74176,0.51873 8.36982,0.57425 10.78561,3.47835 1.37468,1.65254 1.67433,4.41885 0.82895,6.3952 -0.50287,1.17562 -1.83898,2.01428 -3.09165,2.27078 -4.06764,0.83291 -8.0062,-2.34559 -12.12938,-2.83432 -7.3429,-0.87038 -14.97894,-1.81105 -22.18246,-0.14221 -9.78408,2.26668 -17.90363,9.11174 -26.9747,13.42241 -1.65268,0.78537 -3.17045,2.30336 -4.99986,2.26599 -1.93882,-0.0396 -4.65404,-0.75406 -5.19638,-2.6159 z" id="path72" sodipodi:nodetypes="sssssssssssss"/>
  <path style="fill:url(#linearGradient73);fill-opacity:1;stroke-width:0.763425" d="m 325.22504,231.48335 c 1.25644,3.2479 -5.63055,3.38568 -9.53832,5.46369 -3.8495,2.04702 -17.10352,6.67486 -21.90587,7.33734 -6.72304,0.92743 -7.6436,0.42705 -14.50004,0.61608 -2.98327,0.0822 -22.94594,-2.64532 -25.20711,-7.13805 -0.39654,-0.78786 1.24205,-2.22435 2.41265,-2.36299 3.80119,-0.45017 7.37736,1.61162 11.19554,1.9908 6.79971,0.67528 13.86993,1.3998 20.60665,0.48109 9.15005,-1.24783 16.87345,-5.39468 25.41456,-7.93622 1.55613,-0.46304 3.0061,-1.38767 4.70488,-1.33191 1.80038,0.0591 6.36193,1.70364 6.81706,2.88017 z" id="path72-3" sodipodi:nodetypes="sssssssssss"/>
  <path fill-rule="evenodd" clip-rule="evenodd" d="m 305.42601,362.97986 c -0.67964,-0.55961 -1.37404,-1.10599 -2.00978,-1.71331 -0.70803,-0.67586 -1.15292,-1.49331 -1.05599,-2.52849 0.0557,-0.59559 -0.0818,-1.10787 -0.80004,-1.30704 0.16886,-0.43694 0.32713,-0.73 0.39112,-1.04238 0.0712,-0.34833 0.0674,-0.71447 0.0773,-1.07304 0.10003,-3.77116 -1.26234,-7.07699 -3.28007,-10.16055 -0.92917,-1.41911 -1.8996,-2.81286 -2.8901,-4.18993 -1.54936,-2.15366 -2.10481,-4.57311 -2.13282,-7.1868 a 18.009206,18.009206 0 0 0 -0.4093,-3.58754 c -0.49715,-2.28692 -1.7224,-4.07519 -3.94458,-5.03426 -1.7027,-0.73531 -3.46524,-0.88109 -5.26335,-0.41045 -2.61293,0.68344 -4.19296,2.62543 -4.16343,5.33416 0.028,2.60687 0.15789,5.21715 0.34909,7.81796 0.10902,1.47402 -0.11814,2.74584 -1.09613,3.91506 -0.94051,1.12415 -1.78183,2.33691 -2.59665,3.558 -0.46534,0.69819 -0.87728,1.45885 -1.16505,2.24565 -0.78376,2.1442 -1.5043,4.30618 -2.75492,6.24741 -0.46344,0.71941 -0.51608,1.52437 -0.18704,2.34714 0.0852,0.21317 0.13742,0.54106 0.0338,0.71258 -0.8913,1.47931 -1.89732,2.78104 -3.8113,3.06503 -1.50544,0.22376 -1.57966,0.49751 -1.53383,2.04952 0.0378,1.26349 0.023,2.53872 -0.10597,3.79427 -0.13743,1.34603 0.003,1.71178 1.30325,2.03437 3.00027,0.74515 6.02516,1.38087 8.8948,2.59514 1.22185,0.51684 2.44785,0.33736 3.43191,-0.66752 1.02723,-1.04919 2.32518,-1.45962 3.72724,-1.46115 2.3797,-10e-4 4.76016,0.11278 7.14099,0.13975 0.64443,0.007 1.01436,0.24725 1.27371,0.83262 0.31805,0.71675 0.85571,1.24341 1.68301,1.33504 1.58762,0.17493 3.03398,-0.0606 4.23689,-1.27181 1.48349,-1.49484 3.19413,-2.67541 5.15506,-3.49363 0.56114,-0.23438 1.0897,-0.60279 1.55353,-1.00262 0.84473,-0.72773 0.80005,-1.19117 -0.0512,-1.89315 z m -19.4605,-30.47033 c 0.287,-0.98482 0.9606,-1.62396 1.98516,-1.81782 0.86177,-0.1628 1.5914,0.2605 2.13511,1.22904 0.58536,1.04426 0.77771,2.13548 0.2779,3.27819 -0.41005,0.93673 -0.60239,1.02495 -1.56108,0.70728 -0.17948,-0.0594 -0.35478,-0.12988 -0.67283,-0.24687 0.26807,-0.22491 0.43693,-0.39187 0.63004,-0.52327 0.42936,-0.2923 0.54977,-0.70349 0.50964,-1.19192 -0.0526,-0.6414 -0.55697,-1.20935 -1.07418,-1.20216 -0.46382,0.006 -0.85646,0.44186 -0.90871,1.10371 -0.0326,0.41234 0.036,0.83261 0.0655,1.35891 -1.30476,-0.38734 -1.78373,-1.33468 -1.38655,-2.69509 z m -4.82754,-0.85231 c 0.48237,-0.73 1.21047,-0.87615 1.9314,-0.38772 0.76824,0.521 1.343,1.99009 1.04615,2.86852 -0.10785,0.31957 -0.42671,0.56794 -0.64974,0.8485 l -0.22869,-0.14162 c -0.0871,-0.47444 -0.10452,-0.97877 -0.28662,-1.41344 -0.1151,-0.27564 -0.47594,-0.4483 -0.72659,-0.66715 -0.23551,0.27981 -0.64102,0.54636 -0.66525,0.84359 -0.0333,0.41044 0.18061,0.86328 0.36689,1.26122 0.11771,0.25028 0.37902,0.43354 0.6486,0.72546 l -0.72774,0.57173 c -1.14271,-1.0223 -1.48234,-3.33952 -0.70841,-4.50912 z m 14.26076,24.31039 c -0.0768,0.98595 -0.18932,1.02722 -1.18057,1.17299 -0.70388,0.10307 -0.8932,0.28625 -0.92879,1.12227 a 38.523436,38.523436 0 0 0 -0.004,2.93553 c 0.0231,0.67018 -0.20332,1.19571 -0.6645,1.66333 -2.56105,2.59588 -5.62077,3.82606 -9.281,3.37965 -1.5789,-0.19271 -2.61104,-1.15368 -3.4444,-2.51373 0.37104,-0.13743 0.64556,-0.22983 0.91325,-0.33849 1.18209,-0.48087 1.4032,-1.49749 0.45928,-2.37667 -0.71335,-0.66526 -1.50923,-1.24305 -2.27444,-1.85226 -0.73985,-0.58878 -1.48954,-1.16544 -2.23051,-1.75269 -0.63156,-0.50092 -0.87275,-1.14649 -0.88789,-1.96433 -0.0355,-1.96208 0.36803,-3.79768 1.18814,-5.58367 0.73152,-1.59366 1.29832,-3.26267 1.98364,-4.87866 0.35403,-0.83375 0.72169,-1.68681 1.24116,-2.4187 0.49942,-0.70198 0.808,-1.3892 0.75271,-2.24907 -0.0317,-0.48313 -0.006,-0.97005 -0.006,-1.45508 l 0.2677,-0.13322 c 0.43201,0.37295 0.8716,0.73795 1.29605,1.12037 1.53157,1.38049 2.98815,1.44373 4.66435,0.25369 0.71486,-0.50775 1.48802,-0.93523 2.24414,-1.38277 0.18819,-0.11133 0.41348,-0.16015 0.73228,-0.27943 0.81444,1.91814 1.61372,3.79881 2.41378,5.67946 0.40588,0.95567 0.73151,1.9564 1.23585,2.85753 1.01131,1.80797 1.54936,3.71551 1.54102,5.78246 -0.004,1.07153 0.0519,2.14683 -0.0306,3.21155 z" id="path1" style="stroke-width:0.378631;fill:#3f3d56;fill-opacity:1"/>
</svg>