<?xml version="1.0" encoding="UTF-8" standalone="no"?>
<!-- Uploaded to: SVG Repo, www.svgrepo.com, Generator: SVG Repo Mixer Tools -->

<svg
   height="800px"
   width="800px"
   version="1.1"
   id="Capa_1"
   viewBox="0 0 88.784 88.784"
   xml:space="preserve"
   sodipodi:docname="universal-serial-usb-connector-svgrepo-com.svg"
   inkscape:version="1.2.2 (b0a8486541, 2022-12-01)"
   xmlns:inkscape="http://www.inkscape.org/namespaces/inkscape"
   xmlns:sodipodi="http://sodipodi.sourceforge.net/DTD/sodipodi-0.dtd"
   xmlns="http://www.w3.org/2000/svg"
   xmlns:svg="http://www.w3.org/2000/svg"><defs
   id="defs15" /><sodipodi:namedview
   id="namedview13"
   pagecolor="#ffffff"
   bordercolor="#000000"
   borderopacity="0.25"
   inkscape:showpageshadow="2"
   inkscape:pageopacity="0.0"
   inkscape:pagecheckerboard="0"
   inkscape:deskcolor="#d1d1d1"
   showgrid="false"
   inkscape:zoom="0.545625"
   inkscape:cx="266.66667"
   inkscape:cy="310.65292"
   inkscape:window-width="2500"
   inkscape:window-height="1021"
   inkscape:window-x="1980"
   inkscape:window-y="29"
   inkscape:window-maximized="1"
   inkscape:current-layer="g10" />
<g
   id="g10"
   transform="matrix(0.95763727,0,0,0.95763727,0.98196815,3.7611329)"
   style="fill:#ff6600">
	<rect
   style="fill:#1a1a1a;stroke-width:0.116071"
   id="rect350"
   width="86.901588"
   height="86.901588"
   x="2.2168181"
   y="-1.4107829"
   rx="11.187614"
   ry="11.187614" /><g
   id="g8"
   style="fill:#ff6600"
   transform="matrix(0.75251035,0,0,0.75251035,11.327853,9.9085048)">
		<path
   style="fill:#ff6600"
   d="M 58.74,0 H 30.027 V 26.033 H 58.74 c 0,0 0,-26.033 0,-26.033 z M 40.173,17.497 h -6.281 v -6.281 h 6.281 z m 14.702,0 h -6.277 v -6.281 h 6.277 z"
   id="path2" />
		<path
   style="fill:#ff6600"
   d="m 65.436,28.931 c -0.204,0.612 -1.027,1.045 -2.434,1.045 H 25.846 c -1.525,0 -2.412,-0.497 -2.498,-1.199 -0.104,0.39 -0.168,0.841 -0.168,1.396 v 28.684 c 0,4.556 3.819,8.285 8.482,8.285 h 25.442 c 4.663,0 8.478,-3.729 8.478,-8.285 V 30.173 c 0.008,-0.494 -0.064,-0.88 -0.146,-1.242 z M 50.315,41.762 c -0.329,-0.004 -0.659,0 -0.984,0 -0.014,0.029 -0.014,0.054 -0.014,0.075 0,0.734 0,1.467 0,2.201 0.014,0.701 -0.258,1.303 -0.719,1.818 -0.286,0.304 -0.608,0.58 -0.909,0.862 -0.805,0.773 -1.614,1.528 -2.426,2.301 -0.222,0.208 -0.326,0.483 -0.369,0.777 -0.007,0.079 -0.014,0.157 -0.014,0.236 0,1.75 0,3.504 0,5.261 0,0.068 0.014,0.086 0.089,0.107 0.991,0.233 1.725,1.063 1.865,2.083 0.175,1.303 -0.727,2.545 -2.022,2.759 -1.338,0.222 -2.577,-0.633 -2.856,-1.954 -0.258,-1.292 0.565,-2.584 1.843,-2.881 0.079,-0.021 0.093,-0.054 0.093,-0.129 -0.007,-0.523 -0.007,-1.045 -0.007,-1.568 0,-0.354 -0.111,-0.662 -0.329,-0.941 -0.021,-0.021 -0.021,-0.036 -0.061,-0.061 -1.07,-1.013 -2.158,-2.029 -3.217,-3.06 -0.523,-0.515 -0.82,-1.16 -0.82,-1.922 0,-0.759 0,-1.507 0,-2.276 0,-0.057 -0.014,-0.082 -0.075,-0.107 -0.623,-0.243 -0.988,-0.88 -0.916,-1.521 0.082,-0.698 0.608,-1.22 1.288,-1.313 0.902,-0.115 1.714,0.623 1.664,1.539 -0.036,0.619 -0.354,1.052 -0.931,1.303 -0.054,0.018 -0.068,0.047 -0.068,0.093 0,0.795 0,1.593 0.007,2.387 0.007,0.401 0.161,0.748 0.447,1.031 0.984,0.934 1.965,1.861 2.949,2.784 0.021,0.014 0.036,0.036 0.057,0.068 0,-5.05 0,-10.089 0,-15.131 -0.39,0 -0.798,0 -1.217,0 0.58,-0.995 1.134,-1.976 1.714,-2.967 0.58,0.988 1.142,1.968 1.714,2.956 -0.426,0 -0.82,0 -1.217,0 0,3.808 -0.014,7.616 0,11.427 0.014,-0.014 0.029,-0.029 0.043,-0.039 1.013,-0.963 2.026,-1.904 3.024,-2.867 0.211,-0.208 0.315,-0.465 0.372,-0.748 0.014,-0.075 0.014,-0.15 0.014,-0.222 0,-0.766 0,-1.525 0,-2.298 0,-0.014 0,-0.032 0,-0.064 -0.329,0 -0.651,0 -0.977,0 0,-0.991 0,-1.979 0,-2.956 0.977,0.004 1.958,0 2.956,0 0.009,0.981 0.009,1.965 0.009,2.957 z"
   id="path4" />
		<path
   style="fill:#ff6600"
   d="m 47.108,74.182 h 5.075 c 1.432,0 2.609,-1.17 2.609,-2.605 v -1.843 c 0,-0.136 -0.064,-0.251 -0.075,-0.379 h -20.65 c -0.025,0.129 -0.075,0.247 -0.075,0.379 v 1.843 c 0,1.428 1.163,2.605 2.602,2.605 h 5.264 c 0.161,1.406 0.784,4.32 3.189,7.233 4.03,4.885 10.944,7.369 20.557,7.369 v -5.2 C 50.372,83.58 47.602,76.659 47.108,74.182 Z"
   id="path6" />
	</g>
</g>
</svg>
